<?xml version="1.0" encoding="UTF-8"?> <svg xmlns="http://www.w3.org/2000/svg" id="Layer_1" data-name="Layer 1" viewBox="0 0 150 150"><defs><style> .cls-1, .cls-2, .cls-3 { stroke: #267ffd; stroke-miterlimit: 10; } .cls-1, .cls-4 { fill: #d9e0e8; } .cls-2, .cls-5 { fill: #c7c8c9; } .cls-6 { fill: #0f1f2c; } .cls-7 { fill: #267ffd; } .cls-8 { fill: rgba(180, 182, 179, .99); } .cls-9 { fill: #b4b6b3; } .cls-10 { fill: #6aa6df; } .cls-3 { fill: #efefef; } </style></defs><path class="cls-2" d="M144.19,74.99c0-38.22-30.99-69.21-69.21-69.21S5.78,36.77,5.78,74.99c0,26.15,14.51,48.91,35.92,60.68l1.13,8.53,14.84-2.18h0c5.53,1.43,11.34,2.18,17.32,2.18,6.98,0,13.71-1.04,20.06-2.96v.78l14.84,2.18,1.37-10.26c19.76-12.19,32.94-34.02,32.94-58.95Z"></path><path class="cls-6" d="M115.85,131.74c.25.28,1.91,6.93,2.09,7.8h-5.36s-1.08.02-1.08.02c-.34-1.39-.72-2.91-1.28-4.23,1.95-.89,3.96-2.23,5.62-3.59Z"></path><path class="cls-6" d="M39.18,139.47c-.18.12-.37.08-.59.08h-5.86c.64-2.62,1.33-5.22,2.01-7.83,1.37,1.2,4.03,2.89,5.69,3.64-.51,1.34-.76,2.77-1.26,4.11Z"></path><path class="cls-8" d="M62.06,145.4l-18.74.02-9.57.04c-1.85,0-3.76-.17-5.59.05l-.06.11h44.48c-.34-.22-.71-.2-1.1-.21-3.13-.07-6.28,0-9.41,0Z"></path><path class="cls-9" d="M119.49,145.4h-11s-23.33,0-23.33,0c-3.91,0-7.85-.09-11.76,0-.26,0-.41.07-.63.21h52.44l.05-.09c-1.64-.27-4.06-.12-5.77-.12Z"></path><path class="cls-10" d="M112.59,139.54h5.36c-.19-.87-1.84-7.53-2.09-7.8-1.66,1.36-3.67,2.69-5.62,3.59.56,1.32.95,2.83,1.28,4.23h1.08Z"></path><path class="cls-10" d="M32.73,139.54h5.86c.21,0,.41.04.59-.08.5-1.34.75-2.77,1.26-4.11-1.66-.76-4.33-2.44-5.69-3.64-.68,2.61-1.37,5.22-2.01,7.83Z"></path><g><path class="cls-6" d="M7.61,56.8c-.45,1.68-.85,3.43-1.17,5.26.2-1.55.68-3.51,1.17-5.26Z"></path><path class="cls-6" d="M28.08,118.1c-.37-.4-.73-.8-1.11-1.23.39.39.75.81,1.11,1.23Z"></path><path class="cls-6" d="M27.97,126.21c-.2-.17-.39-.33-.56-.5-.21-.2-.42-.4-.62-.62.41.41.8.77,1.18,1.12Z"></path><path class="cls-6" d="M5.4,74.64c.04,6.65.97,15.22,4.27,24.34-2.48-6.65-3.9-13.66-4.2-20.76-.04-1.09-.1-2.18-.08-3.27,0-.1.01-.21.02-.31Z"></path><path class="cls-6" d="M20.44,108.02c-2.03-3.33-3.95-7.13-5.51-11.43-.68-1.87-1.95-5.63-2.8-10.51.35,1.92.78,3.83,1.3,5.71.98,3.51,2.24,6.93,3.78,10.22.51,1.09,1.06,2.16,1.64,3.22.45.82,1.19,1.83,1.59,2.79Z"></path></g><path class="cls-3" d="M35.42,118.05c8.86,8.27,20.1,13.55,32.12,15.1,3.31.42,6.57.49,9.89.45,2.66-.13,5.31-.36,7.94-.8,13.05-2.24,24.96-8.84,33.77-18.72,10.44-11.53,15.83-26.76,14.97-42.3-.76-15.56-7.72-30.17-19.33-40.57-11.33-10.23-26.2-15.67-41.46-15.16-15.84.5-30.8,7.39-41.48,19.09-10.63,11.5-16.19,26.78-15.44,42.42.73,15.48,7.56,30.04,18.99,40.49ZM32.57,106.28l-.12-.09c-.95-1.28-1.83-2.62-2.73-3.94,1.19-1.49,1.34-4.24,1.9-6.12.81-2.69,2.15-5.19,3.94-7.35,4.61-5.51,10.9-7.97,17.91-8.58.15-.02.12-.01.23.06.26,1.86,1.24,4.3,2.22,5.88-2.19.53-4.33,1.05-6.41,1.94-4.07,1.7-7.67,4.38-10.47,7.79-.9,1.11-1.73,2.32-2.43,3.56-.89,1.59-2.54,6.17-4.06,6.85ZM56.45,121.42c.42,1.26.91,2.54,1.6,3.68-1.18-.58-2.48-.98-3.69-1.5-2.32-.98-4.56-2.14-6.71-3.46-4.26-2.55-8.01-5.93-11.42-9.5,3.08-1.6,3.88-5.4,5.49-8.21,3.1-5.39,7.83-8.47,13.72-10.04.1-.01.11.02.2.07.13.48.36.93.67,1.32.61.77,1.43,1.07,2.37,1.18-1.23,2.2-2.13,5.4-2.73,7.85-1.47,6.05-1.49,12.67.5,18.61ZM62.54,64.43c2.91-3.53,7.02-5.52,11.53-5.96.02,0,.03,0,.05,0,3.95-.44,8.26,1.04,11.38,3.43,3.47,2.66,5.76,6.58,6.36,10.92.55,4.34-.62,8.73-3.26,12.22-2.99,3.87-6.97,5.81-11.74,6.44-4.49.38-8.69-.95-12.18-3.79-3.33-2.75-5.44-6.7-5.87-10.99-.45-4.42.9-8.84,3.74-12.25ZM71.89,127.77c-1.84-.08-3.71-.32-5.51-.68-1.77-2.23-3.4-4.76-4.32-7.46-2.01-5.89-1.49-12.56.44-18.4.73-2.22,1.67-4.3,2.7-6.39,1.88.98,3.77,1.58,5.83,2.06-.34.7-.57,1.49-.82,2.22-1.02,2.97-1.81,5.99-2.11,9.13-.62,6.55,1.03,14.42,5.3,19.57-.5,0-1-.02-1.5-.05ZM107.23,117.13c-3.25,2.44-6.66,4.4-10.32,6.14-5.95,2.65-11.49,3.79-17.92,4.48.01-.44.05-.9-.03-1.33-.27-1.57-2.07-3.55-2.81-5.12-1.5-3.17-2.32-6.55-2.34-10.07-.02-3.12.62-6.2,1.58-9.15.53-1.65,1.17-3.16,1.41-4.89,2.29-.15,4.4-.61,6.57-1.37h.11c.18.11,2.21,3.03,2.73,3.63,1.34,1.54,2.79,3,4.21,4.46,1.53,1.57,3.02,3.18,4.73,4.56,3.7,3,8.37,5.15,13.14,5.58.89.08,1.82.14,2.71.05-1.27.99-2.46,2.06-3.75,3.02ZM117.6,106.89c-.71-.04-1.27.13-1.94.34-2.03.69-3.98,1.11-6.14,1.01-4.31-.2-8.29-2.15-11.48-4.99-1.51-1.34-2.87-2.88-4.24-4.36-1.77-1.89-3.53-3.8-5.27-5.73,1.89-1.34,3.53-3.05,4.91-4.9,1.08.48,4.99,4.7,6.06,5.73,1.04,1.03,2.16,1.98,3.33,2.86,5.41,4.02,11.7,5.64,18.38,4.65-1.15,1.83-2.35,3.63-3.6,5.39ZM128.03,68.54c.81,6.54.38,13.5-1.35,19.86-.68,2.49-1.58,4.89-2.52,7.29-1.9-.8-3.17-.14-5.08.1-4.56.6-9.38-.94-12.97-3.77-1.98-1.56-3.72-3.45-5.5-5.22-1.34-1.34-2.65-2.86-4.47-3.52.23-.49.37-1,.51-1.52,2.6.45,5.52.28,8.12-.08,7.49-1.05,13.06-4.64,17.57-10.61,2.01-2.93,3.43-5.97,4.46-9.37.42,2.29.94,4.53,1.23,6.85ZM122.02,49.8c.36.25,1.17,2.16,1.43,2.65-1.47,1.79-1.47,4.2-1.97,6.37-1.03,4.47-3.3,8.76-6.66,11.92-4.49,4.21-10.3,5.55-16.29,5.37l-.84-.02c0-2.31-.2-4.49-.74-6.74,7.86-.35,14.01-4.08,18.34-10.57,1.51-2.26,2.82-4.77,4.58-6.84.66-.77,1.39-1.45,2.15-2.13ZM98.19,30.42c-.29-1.26-.47-2.55-.81-3.8,7.16,3.58,13.22,7.85,18.45,13.97,1.21,1.41,2.2,2.96,3.36,4.39-1.57.54-2.71,1.89-3.8,3.08-1.99,2.28-3.35,4.96-5.05,7.44-2.72,3.97-6.25,6.88-11.12,7.66-1.49.24-3.05.18-4.52.47l-.09.02c-1.05-2.02-2.52-3.81-4.3-5.23,1.16-1.51,2.1-3.36,2.98-5.04,3.07-5.81,5.28-12.33,5.22-18.97-.01-1.34-.15-2.65-.31-3.98ZM89.45,23.79c.39.83.89,1.62,1.31,2.44.57,1.1.96,2.24,1.25,3.44,2.17,8.79-1.77,17.61-6.21,24.98l-.34.55c-1.58-1.12-3.83-1.76-5.71-2.09,2.75-4.45,5.22-9.49,6-14.71.84-5.63-.42-11.46-3.82-16.06,2.53.17,5.05.86,7.51,1.44ZM39.2,36.04c.98-.93,2.03-1.81,3.09-2.65,7.02-5.58,15.35-9.29,24.19-10.77,2.15-.36,4.32-.55,6.49-.7.91-.05,1.83-.04,2.75-.04-.27,2.52,1.65,3.77,2.69,5.8,1.28,2.49,1.82,5.42,1.7,8.21-.19,4.44-2.21,8.3-4.24,12.14-.75,1.42-1.81,2.96-1.93,4.59v.1c-2.74.22-5.21.7-7.7,1.9-2.6-4.47-6.32-8.4-10.53-11.37-4.58-2.92-9.4-4.92-14.87-5.25-1.22-.07-2.51-.13-3.71.09.71-.65,1.37-1.36,2.07-2.02ZM30.5,46.42c.25-.39.49-.84.8-1.19.03-.04.13-.17.18-.19.33-.16.87-.16,1.24-.24,1.82-.39,3.1-.8,5.01-.95,1.51-.14,3.1-.02,4.6.2,5.71.85,11.07,3.97,14.87,8.28,1.5,1.7,2.72,3.55,4.06,5.37-1.76,1.08-3.17,2.93-4.33,4.6-.81-.87-1.63-1.73-2.46-2.58-1.04-1.02-2.07-2.06-3.19-3-5.48-4.6-12.41-7.12-19.57-7.13-1.07,0-2.13.11-3.19.2.59-1.17,1.27-2.26,1.98-3.36ZM23.55,62.64c.71-2.91,1.69-5.66,2.78-8.44.71.38,1.21.9,2.03,1.14,1.32.38,2.88.13,4.24.17,3.27.14,6.49.9,9.48,2.24,3.45,1.56,6.03,3.89,8.64,6.57,1.15,1.18,2.13,2.45,3.6,3.24-.98,2.11-1.22,4.63-1.33,6.93-6.07.1-11.95,2.08-16.85,5.66-4.89,3.52-8.49,8.57-10.22,14.34-.24-.8-.58-1.57-.86-2.36-.49-1.41-.92-2.83-1.29-4.28-2.05-8.17-2.23-17.01-.23-25.21Z"></path><path class="cls-4" d="M98.46,30.37c.85.22,1.81,1.09,2.51,1.63,4.13,3.12,7.81,6.8,10.93,10.94.67.88,1.3,1.78,1.89,2.71.51.79.98,1.7,1.6,2.4,1.09-1.19,2.24-2.54,3.8-3.08-1.16-1.43-2.15-2.98-3.36-4.39-5.23-6.12-11.29-10.39-18.45-13.97.35,1.25.53,2.53.81,3.8.13-.07.1-.09.26-.05Z"></path><path class="cls-4" d="M122.68,71.92c.11.91.1,1.85.11,2.76.06,4.49-.36,9.15-1.46,13.5-.33,1.3-.71,2.6-1.14,3.87-.36,1.04-.79,2.08-1.07,3.14-.05.21-.08.4-.05.61,1.91-.25,3.17-.9,5.08-.1.95-2.4,1.85-4.8,2.52-7.29,1.73-6.37,2.16-13.32,1.35-19.86-.29-2.32-.81-4.56-1.23-6.85-1.03,3.4-2.45,6.44-4.46,9.37.27.21.3.54.33.86Z"></path><path class="cls-7" d="M85.76,38.41c-.78,5.22-3.25,10.26-6,14.71,1.89.33,4.13.97,5.71,2.09l.34-.55c4.44-7.37,8.38-16.19,6.21-24.98-.3-1.2-.69-2.34-1.25-3.44-.42-.82-.92-1.61-1.31-2.44-2.46-.58-4.98-1.27-7.51-1.44,3.4,4.6,4.66,10.44,3.82,16.06Z"></path><path class="cls-7" d="M68.09,108.25c.3-3.14,1.09-6.16,2.11-9.13.25-.73.49-1.52.82-2.22-2.06-.48-3.95-1.08-5.83-2.06-1.03,2.09-1.96,4.18-2.7,6.39-1.93,5.84-2.45,12.51-.44,18.4.92,2.7,2.55,5.23,4.32,7.46,1.8.35,3.68.59,5.51.68.5.03,1,.05,1.5.05-4.27-5.15-5.92-13.02-5.3-19.57Z"></path><path class="cls-7" d="M39.06,95.87c2.8-3.42,6.39-6.09,10.47-7.79,2.08-.89,4.22-1.41,6.41-1.94-.98-1.58-1.96-4.02-2.22-5.88-.12-.07-.09-.08-.23-.06-7.01.61-13.3,3.07-17.91,8.58-1.79,2.16-3.13,4.66-3.94,7.35-.56,1.88-.71,4.64-1.9,6.12.89,1.32,1.77,2.66,2.73,3.94l.12.09c1.51-.67,3.16-5.26,4.06-6.85.7-1.24,1.54-2.45,2.43-3.56Z"></path><path class="cls-7" d="M51.28,56.71c1.11.94,2.14,1.98,3.19,3,.83.85,1.65,1.71,2.46,2.58,1.16-1.67,2.57-3.52,4.33-4.6-1.34-1.81-2.57-3.67-4.06-5.37-3.8-4.31-9.16-7.43-14.87-8.28-1.49-.22-3.09-.35-4.6-.2-1.91.15-3.19.56-5.01.95-.37.08-.91.08-1.24.24-.05.02-.15.15-.18.19-.3.36-.54.8-.8,1.19-.71,1.1-1.39,2.19-1.98,3.36,1.06-.09,2.13-.2,3.19-.2,7.16,0,14.08,2.53,19.57,7.13Z"></path><path class="cls-7" d="M96.95,69.34c.54,2.25.74,4.43.74,6.74l.84.02c5.98.19,11.79-1.15,16.29-5.37,3.37-3.15,5.63-7.44,6.66-11.92.5-2.17.51-4.58,1.97-6.37-.27-.49-1.07-2.4-1.43-2.65-.75.68-1.49,1.36-2.15,2.13-1.77,2.08-3.07,4.58-4.58,6.84-4.33,6.5-10.48,10.22-18.34,10.57Z"></path><path class="cls-7" d="M102.83,96.85c-1.18-.87-2.29-1.83-3.33-2.86-1.07-1.03-4.99-5.24-6.06-5.73-1.38,1.85-3.02,3.56-4.91,4.9,1.74,1.92,3.5,3.83,5.27,5.73,1.37,1.48,2.74,3.01,4.24,4.36,3.19,2.85,7.17,4.79,11.48,4.99,2.15.1,4.11-.32,6.14-1.01.67-.21,1.23-.38,1.94-.34,1.25-1.76,2.45-3.56,3.6-5.39-6.68.98-12.97-.63-18.38-4.65Z"></path><path class="cls-5" d="M119.12,95.19c.28-1.06.72-2.1,1.07-3.14.43-1.28.8-2.57,1.14-3.87,1.1-4.35,1.52-9.01,1.46-13.5-.01-.91,0-1.85-.11-2.76-.04-.32-.07-.65-.33-.86-4.52,5.97-10.09,9.57-17.57,10.61-2.6.36-5.52.53-8.12.08-.13.52-.27,1.04-.51,1.52,1.82.66,3.13,2.18,4.47,3.52,1.78,1.78,3.52,3.66,5.5,5.22,3.59,2.83,8.41,4.37,12.97,3.77-.04-.21,0-.4.05-.61Z"></path><path class="cls-5" d="M58.68,94.95c-.94-.1-1.76-.4-2.37-1.18-.31-.39-.54-.84-.67-1.32-.08-.05-.09-.08-.2-.07-5.89,1.58-10.63,4.65-13.72,10.04-1.62,2.81-2.41,6.62-5.49,8.21,3.41,3.57,7.17,6.95,11.42,9.5,2.15,1.32,4.39,2.48,6.71,3.46,1.21.52,2.51.92,3.69,1.5-.7-1.14-1.18-2.42-1.6-3.68-1.98-5.94-1.97-12.56-.5-18.61.6-2.45,1.5-5.66,2.73-7.85Z"></path><path class="cls-5" d="M90.3,58.41c1.78,1.43,3.25,3.21,4.3,5.23l.09-.02c1.47-.29,3.03-.23,4.52-.47,4.87-.78,8.4-3.7,11.12-7.66,1.7-2.47,3.06-5.16,5.05-7.44-.62-.71-1.09-1.61-1.6-2.4-.59-.93-1.22-1.83-1.89-2.71-3.12-4.14-6.79-7.82-10.93-10.94-.7-.54-1.66-1.41-2.51-1.63-.16-.04-.13-.02-.26.05.17,1.33.3,2.64.31,3.98.06,6.64-2.15,13.16-5.22,18.97-.89,1.68-1.83,3.53-2.98,5.04Z"></path><path class="cls-5" d="M108.27,114.05c-4.77-.44-9.44-2.58-13.14-5.58-1.71-1.38-3.2-2.98-4.73-4.56-1.42-1.46-2.87-2.92-4.21-4.46-.51-.59-2.55-3.52-2.73-3.64h-.11c-2.17.77-4.28,1.24-6.57,1.38-.24,1.73-.88,3.24-1.41,4.89-.95,2.95-1.59,6.03-1.58,9.15.02,3.51.85,6.9,2.34,10.07.74,1.57,2.54,3.56,2.81,5.12.07.43.04.9.03,1.33,6.43-.7,11.98-1.84,17.92-4.48,3.66-1.74,7.07-3.7,10.32-6.14,1.28-.97,2.48-2.04,3.75-3.02-.89.09-1.82.03-2.71-.05Z"></path><path class="cls-5" d="M25.07,92.13c.28.79.62,1.56.86,2.36,1.74-5.78,5.33-10.82,10.22-14.34,4.89-3.58,10.78-5.56,16.85-5.66.11-2.29.35-4.82,1.33-6.93-1.48-.79-2.45-2.06-3.6-3.24-2.61-2.68-5.19-5.01-8.64-6.57-2.99-1.34-6.21-2.1-9.48-2.24-1.36-.05-2.92.2-4.24-.17-.82-.23-1.32-.76-2.03-1.14-1.09,2.78-2.07,5.54-2.78,8.44-2,8.2-1.82,17.04.23,25.21.37,1.44.8,2.87,1.29,4.28Z"></path><path class="cls-5" d="M40.84,37.97c5.47.34,10.3,2.33,14.87,5.25,4.21,2.98,7.93,6.91,10.53,11.37,2.5-1.19,4.96-1.67,7.7-1.9v-.1c.13-1.63,1.19-3.17,1.94-4.59,2.02-3.84,4.04-7.7,4.24-12.14.12-2.78-.42-5.72-1.7-8.21-1.04-2.03-2.97-3.28-2.69-5.8-.92,0-1.83-.02-2.75.04-2.17.15-4.34.34-6.49.7-8.85,1.49-17.17,5.19-24.19,10.77-1.06.84-2.1,1.72-3.09,2.65-.7.66-1.36,1.37-2.07,2.02,1.2-.22,2.49-.16,3.71-.09Z"></path><path class="cls-7" d="M64.67,87.67c3.49,2.84,7.69,4.17,12.18,3.79,4.77-.63,8.75-2.57,11.74-6.44,2.65-3.49,3.82-7.88,3.26-12.22-.6-4.33-2.88-8.26-6.36-10.92-3.11-2.38-7.43-3.87-11.38-3.43-.02,0-.03,0-.05,0-4.51.44-8.62,2.43-11.53,5.96-2.84,3.42-4.19,7.83-3.74,12.25.43,4.29,2.54,8.24,5.87,10.99ZM65.75,69.86c1.4-2.54,3.76-4.42,6.54-5.24,2.79-.83,5.8-.49,8.34.94,2.6,1.46,4.45,3.77,5.24,6.66.76,2.77.38,5.72-1.03,8.21-.9,1.57-2.64,3.61-4.47,4.06-.77.19-1.62.08-2.29-.36-.83-.54-1.17-1.35-1.36-2.28-.02-.15-.05-.29-.08-.43-.38-.14-1.05.02-1.48,0-.37-.02-.74-.09-1.1-.16-.02.21,0,.52-.07.71-.09.35-.18.71-.34,1.03-.34.67-.87,1.21-1.59,1.45-.82.27-1.71.12-2.47-.28-2.22-1.17-3.99-3.59-4.71-5.96-.84-2.79-.53-5.8.87-8.35Z"></path><path class="cls-1" d="M69.59,84.17c.75.4,1.64.55,2.47.28.72-.24,1.26-.78,1.59-1.45.16-.32.26-.68.34-1.03-.07-.39-.04-.78-.15-1.17-.34-1.26-1.69-1.74-2.47-2.68-.82-.99-1.14-2.26-1.02-3.53.13-1.34.78-2.57,1.83-3.42.92-.75,2.31-1.26,3.51-1.13,1.44.16,2.74.78,3.65,1.93,1.45,1.84,1.43,4.53-.13,6.3-.59.67-1.42,1.11-1.93,1.86-.37.55-.47,1.08-.54,1.72.19.93.52,1.74,1.36,2.28.67.44,1.52.55,2.29.36,1.83-.45,3.58-2.49,4.47-4.06,1.41-2.49,1.79-5.44,1.03-8.21-.79-2.88-2.64-5.2-5.24-6.66-2.54-1.43-5.55-1.76-8.34-.94-2.79.81-5.14,2.7-6.54,5.24-1.39,2.56-1.71,5.57-.87,8.35.71,2.37,2.49,4.8,4.71,5.96Z"></path><path class="cls-3" d="M79.04,78.14c1.5-1.69,1.52-4.27.13-6.04-.87-1.1-2.11-1.7-3.49-1.85-1.15-.13-2.48.36-3.36,1.08-1,.81-1.63,2-1.75,3.28-.11,1.21.19,2.44.98,3.39.75.9,2.04,1.36,2.37,2.57.1.38.07.75.14,1.12.06-.18.05-.48.07-.68.34.07.7.14,1.05.15.41.02,1.05-.14,1.42,0,.03.14.06.27.08.42.07-.61.16-1.13.52-1.65.49-.71,1.28-1.14,1.85-1.78Z"></path><path class="cls-7" d="M129.31,30.34c-10.65-12.93-25.56-21.63-42.05-24.55-2.06-.37-4.15-.56-6.24-.76-2.08-.2-4.16-.22-6.25-.22-16.47.01-31.86,5.96-44.53,16.41-5.06,4.25-9.46,9.16-13.09,14.59,0,.01-.01.01-.01.02-.2.29-.4.59-.61.91-.52.81-1.06,1.69-1.63,2.63-.23.4-.46.8-.7,1.23-.25.45-.51.91-.76,1.39-.7,1.3-1.4,2.7-2.07,4.2-.15.33-.29.67-.44,1.01-.18.38-.33.76-.49,1.16-.2.49-.39.97-.57,1.46-.19.49-.38.99-.55,1.48-.35.99-.68,1.99-.99,3-.08.27-.17.55-.27.86,0,.02,0,.04-.01.05-.1.33-.2.67-.29,1.01-.05.19-.1.38-.16.57-.45,1.68-.85,3.43-1.17,5.26-.01.03-.01.06-.02.09-.28,1.54-1.05,6.11-1.02,12.46v.03c.04,6.65.97,15.22,4.27,24.34.23.61.46,1.21.7,1.83.14.38.29.76.46,1.14.22.53.45,1.05.68,1.58.02.05.04.1.07.16,1.11,2.48,2.41,4.99,3.93,7.48,2.38,3.89,4.92,7.17,7.32,9.86.1.13.22.25.32.37.17.17.32.33.48.5,1.02,1.1,2.08,2.18,3.15,3.21t.01,0c.41.41.8.77,1.18,1.12.06.06.14.11.2.18.52.44,1.04.89,1.47,1.38-.32,2.09-1.05,4.29-1.6,6.34-.41,1.51-.94,4.1-1.57,5.43-1.21-.03-2.44-.17-3.4.73-.58.54-.9,1.33-.92,2.13-.03.8.25,1.55.82,2.13,1.38,1.36,3.33.63,5,1.1h.11l.06-.1c1.84-.22,3.75-.05,5.59-.05l9.57-.04,18.75-.02c3.13,0,6.28-.06,9.41.01.39.01.75-.01,1.1.21h.19c.22-.14.37-.2.63-.21,3.91-.09,7.86,0,11.77,0h34.33c1.71,0,4.13-.16,5.77.11.85-.13,1.6-.27,2.27-.86.57-.49.94-1.17.99-1.94.05-.81-.2-1.63-.76-2.22-1.02-1.11-2.32-.95-3.67-1-.61-1.83-1.03-3.74-1.53-5.6-.54-2.01-1.16-4.02-1.6-6.05.88-1.01,2.03-1.86,3.02-2.78,1.64-1.54,3.17-3.22,4.64-4.94,8.07-9.46,13.46-20.92,15.62-33.17.35-1.97.57-3.99.77-5.99,1.64-18.29-4-36.49-15.69-50.64ZM135.81,96.24c-4.51,12.65-12.85,23.56-23.87,31.23-1.32.93-2.67,1.8-4.05,2.65-.83.49-1.73.92-2.52,1.46-.32.23-.72.51-.92.86-.31.51-.47,1.11-.47,1.7.01,1.02,1.12,4.32,1.48,5.4h-60.25c.37-1.23,1.4-4.19,1.47-5.24.04-.61-.11-1.26-.41-1.78-.2-.34-.57-.65-.89-.87-.85-.59-1.84-1.02-2.71-1.55-1.66-.98-3.27-2.08-4.82-3.21-1.86-1.37-3.64-2.82-5.34-4.36-.61-.54-1.2-1.11-1.78-1.67-.78-.76-1.54-1.53-2.28-2.35-.13-.14-.24-.27-.37-.41-.37-.4-.73-.8-1.11-1.23l-.04-.04c-2.13-2.43-4.37-5.36-6.49-8.81-2.03-3.33-3.95-7.13-5.51-11.43-.68-1.87-1.95-5.63-2.8-10.51-.08-.46-.16-.93-.23-1.39-.17-1.02-.3-2.04-.42-3.08-.13-1.24-.22-2.48-.27-3.72-.02-.37-.01-.81,0-1.3-.01-.43-.01-.87-.01-1.3,0-8.15,1.55-15.51,3.52-21.6.21-.61.43-1.21.67-1.8,5.94-15.45,17.59-28.03,32.55-35.13,15.13-7.15,32.47-8.1,48.3-2.64,16.24,5.64,29.57,17.55,37.01,33.07,7.35,15.36,8.26,33.01,2.57,49.06Z"></path><path class="cls-6" d="M8.07,55.16c.39-1.34.81-2.62,1.26-3.86-.35.99-.68,1.99-.99,3-.08.27-.17.55-.27.86Z"></path><path class="cls-6" d="M11.91,84.69c-.17-1.02-.3-2.04-.42-3.08-.13-1.24-.22-2.48-.27-3.72-.02-.37-.01-.81,0-1.3.05,2.64.27,5.34.69,8.11Z"></path><path class="cls-6" d="M26.78,125.09c-1.14-1.07-2.36-2.32-3.63-3.71.17.17.32.33.48.5,1.02,1.1,2.08,2.18,3.15,3.21Z"></path><path class="cls-6" d="M32.53,122.5l-.02.02c-.61-.54-1.2-1.11-1.78-1.67-.78-.76-1.54-1.53-2.28-2.35-.13-.14-.24-.27-.37-.41,1.62,1.75,3.14,3.21,4.46,4.4Z"></path></svg> 