<?xml version="1.0" encoding="UTF-8"?> <svg xmlns="http://www.w3.org/2000/svg" id="Layer_1" data-name="Layer 1" viewBox="0 0 150 150"><defs><style> .cls-1 { stroke: #d9e0e8; } .cls-1, .cls-2, .cls-3, .cls-4, .cls-5 { stroke-miterlimit: 10; } .cls-1, .cls-6 { fill: #267ffd; } .cls-1, .cls-5 { stroke-width: .75px; } .cls-2 { fill: #c7c8c9; } .cls-2, .cls-3, .cls-5 { stroke: #267ffd; } .cls-3 { fill: #d9e0e8; stroke-width: .5px; } .cls-4 { fill: none; stroke: #c7c8c9; stroke-width: 2px; } .cls-7, .cls-5 { fill: #fff; } </style></defs><rect class="cls-6" x="3.52" y="51.32" width="20.72" height="35.64"></rect><line class="cls-4" x1="64.07" y1="127.97" x2="58.85" y2="136.16"></line><line class="cls-4" x1="103.33" y1="127.92" x2="108.55" y2="136.11"></line><circle class="cls-2" cx="84.08" cy="68.79" r="62.4"></circle><circle class="cls-5" cx="84.08" cy="68.79" r="34.09"></circle><circle class="cls-1" cx="84.08" cy="68.79" r="18.16"></circle><circle class="cls-3" cx="84.08" cy="68.79" r="5.22"></circle><path class="cls-6" d="M76.07,133.69l-38.56,2.47-2.27,7.44h12.3l2.05-2.48h34.49v-7.44h-7.67c-.11,0-.23,0-.34.01Z"></path><path class="cls-6" d="M92.09,133.69l38.56,2.47,2.27,7.44h-12.3s-2.05-2.48-2.05-2.48h-27.62s-6.87,0-6.87,0v-7.44h7.67c.11,0,.23,0,.34.01Z"></path><g><circle class="cls-7" cx="84.08" cy="54.87" r=".99"></circle><circle class="cls-7" cx="84.08" cy="82.72" r=".99"></circle><circle class="cls-7" cx="70.15" cy="68.79" r=".99"></circle><circle class="cls-7" cx="98.01" cy="68.79" r=".99"></circle><circle class="cls-7" cx="74.23" cy="78.64" r=".99"></circle><circle class="cls-7" cx="93.93" cy="58.95" r=".99"></circle><circle class="cls-7" cx="93.93" cy="78.64" r=".99"></circle><circle class="cls-7" cx="74.23" cy="58.95" r=".99"></circle></g><circle class="cls-6" cx="84.08" cy="68.79" r=".99"></circle><path class="cls-6" d="M38.38,62.92l-.1-3.84.26-3.86c.18-1.28.5-2.53.75-3.81.33-1.25.75-2.48,1.12-3.73,1.74-4.92,4.67-9.38,8.22-13.22,3.66-3.75,8.06-6.77,12.87-8.79,4.83-1.96,10.04-2.93,15.16-2.68v.27c-10.13.38-20.02,4.85-27,12.19-7.07,7.26-11.14,17.31-11.14,27.46h-.14Z"></path><path class="cls-6" d="M76.5,23.25c-.47-.43-.73-1.31-.78-1.93.66.8,1.5,1.48,2.5,1.84-.95.44-1.68,1.25-2.3,2.08.02-.67.14-1.48.59-2Z"></path><path class="cls-6" d="M91.49,114.21c5.02-.66,9.88-2.03,14.31-4.24,4.46-2.13,8.51-5.06,11.89-8.63,3.49-3.48,6.18-7.69,8.23-12.18.45-1.15.96-2.29,1.38-3.46l1.06-3.59.82-3.68.48-3.77h.14c.05,10.18-3.99,20.32-11.08,27.66-7.06,7.37-17.03,11.81-27.21,12.14v-.27Z"></path><path class="cls-6" d="M91.67,114.34c.43-.47.6-1.38.59-2-.58.86-1.34,1.63-2.3,2.08.99.34,1.8,1.07,2.5,1.84-.09-.66-.29-1.46-.78-1.93Z"></path><path class="cls-6" d="M74.29,113.82l-3.83-.23-3.82-.59c-1.26-.29-2.48-.72-3.73-1.07-1.22-.43-2.41-.96-3.62-1.44-4.75-2.16-8.95-5.46-12.47-9.33-3.42-3.97-6.05-8.62-7.64-13.58-1.54-4.98-2.05-10.26-1.36-15.34h.27c-.5,10.15,3.1,20.39,9.82,27.97,6.62,7.67,16.29,12.6,26.4,13.46v.14Z"></path><path class="cls-6" d="M38.06,72.42c-.47.44-1.37.62-1.99.61.85-.59,1.61-1.37,2.05-2.33.35.99,1.1,1.78,1.88,2.47-.66-.08-1.46-.27-1.94-.76Z"></path><path class="cls-6" d="M129.96,65.33c-.22-5.06-1.17-10.02-2.99-14.62-1.74-4.62-4.31-8.91-7.58-12.59-3.17-3.77-7.13-6.82-11.43-9.25-1.11-.55-2.19-1.15-3.32-1.67l-3.48-1.36-3.59-1.14-3.71-.8v-.14c10.16.82,19.91,5.73,26.61,13.42,6.74,7.66,10.3,17.99,9.75,28.16h-.27Z"></path><path class="cls-6" d="M130.11,65.17c-.44-.47-1.32-.72-1.94-.76.81.65,1.51,1.48,1.88,2.47.42-.96,1.22-1.7,2.05-2.33-.67.03-1.48.16-1.99.61Z"></path></svg> 