<?xml version="1.0" encoding="UTF-8"?> <!-- Generator: Adobe Illustrator 24.1.2, SVG Export Plug-In . SVG Version: 6.00 Build 0) --> <svg xmlns="http://www.w3.org/2000/svg" xmlns:xlink="http://www.w3.org/1999/xlink" version="1.1" id="Layer_1" x="0px" y="0px" viewBox="0 0 100 100" style="enable-background:new 0 0 100 100;" xml:space="preserve"> <style type="text/css"> .st0{fill:#267FFD;} .st1{fill:#B8BBBF;} .st2{fill:#D9E0E8;} </style> <g> <g> <path class="st0" d="M49.55,52.44c-0.08,0-0.17-0.01-0.25-0.03C33.77,49.17,19.43,41.75,7.81,30.95l-2.4-2.23 c-0.49-0.46-0.52-1.23-0.06-1.73c0.46-0.49,1.23-0.52,1.73-0.06l2.4,2.23c11.29,10.5,25.23,17.71,40.32,20.87 c0.66,0.14,1.08,0.79,0.95,1.45C50.62,52.04,50.12,52.44,49.55,52.44z"></path> </g> <g> <g> <path class="st0" d="M49.2,52.44c-0.57,0-1.07-0.4-1.2-0.97c-0.14-0.66,0.29-1.31,0.95-1.45c15.09-3.15,29.03-10.37,40.32-20.87 l2.4-2.23c0.49-0.46,1.27-0.43,1.73,0.06c0.46,0.49,0.43,1.27-0.06,1.73l-2.4,2.23c-11.62,10.8-25.96,18.22-41.49,21.47 C49.37,52.43,49.28,52.44,49.2,52.44z"></path> </g> </g> <g> <path class="st0" d="M17.96,60.08c-2.95,0-5.9-0.17-8.85-0.51l-2.85-0.33c-0.67-0.08-1.15-0.69-1.07-1.36 c0.08-0.67,0.69-1.15,1.36-1.07l2.85,0.33c13.36,1.56,26.9-0.56,39.15-6.13l1.01,2.23C39.61,57.76,28.83,60.08,17.96,60.08z"></path> </g> <g> <g> <path class="st0" d="M82.2,60.08c-10.87,0-21.65-2.32-31.6-6.85l1.01-2.23c12.25,5.57,25.79,7.69,39.15,6.13l2.85-0.33 c0.67-0.08,1.28,0.4,1.36,1.07c0.08,0.67-0.4,1.28-1.07,1.36l-2.85,0.33C88.11,59.91,85.15,60.08,82.2,60.08z"></path> </g> </g> <g> <g> <path class="st0" d="M51.32,73.4c-0.05,0-0.09,0-0.14-0.01c-0.67-0.08-1.15-0.69-1.07-1.36l0.16-1.38 c0.74-6.35-0.27-12.79-2.92-18.61c-0.28-0.61-0.01-1.34,0.61-1.62c0.61-0.28,1.34-0.01,1.62,0.61 c2.83,6.23,3.91,13.11,3.12,19.91l-0.16,1.38C52.46,72.94,51.93,73.4,51.32,73.4z"></path> </g> </g> <g> <path class="st1" d="M50.06,46.35h-1.38c-0.78,0-1.42-0.63-1.42-1.42v-3.49c0-0.78,0.63-1.42,1.42-1.42h1.38 c0.78,0,1.42,0.63,1.42,1.42v3.49C51.48,45.71,50.85,46.35,50.06,46.35z"></path> </g> <g> <g> <path class="st2" d="M50.34,52.96H48.4c-1.1,0-2-0.89-2-2v-5.78c0-1.1,0.89-2,2-2h1.94c1.1,0,2,0.89,2,2v5.78 C52.34,52.07,51.45,52.96,50.34,52.96z"></path> </g> </g> <g> <ellipse class="st1" cx="49.37" cy="52.88" rx="3.49" ry="2.71"></ellipse> </g> </g> </svg> 