<?xml version="1.0" encoding="UTF-8"?> <!-- Generator: Adobe Illustrator 24.1.2, SVG Export Plug-In . SVG Version: 6.00 Build 0) --> <svg xmlns="http://www.w3.org/2000/svg" xmlns:xlink="http://www.w3.org/1999/xlink" version="1.1" id="Layer_1" x="0px" y="0px" viewBox="0 0 100 100" style="enable-background:new 0 0 100 100;" xml:space="preserve"> <style type="text/css"> .st0{fill:#CACCCE;} .st1{fill:#D9E0E8;} .st2{fill:#B8BBBF;} .st3{fill:#267FFD;} .st4{fill:#FFFFFF;} </style> <g> <polygon class="st0" points="12.48,19.37 45.37,25.81 87.52,19.63 52.32,16.02 "></polygon> <rect x="43.85" y="80.45" class="st1" width="2.35" height="3.53"></rect> <rect x="83.37" y="70.9" class="st1" width="2.35" height="3.53"></rect> <rect x="14.75" y="68.11" class="st1" width="2.35" height="3.53"></rect> <polygon class="st2" points="12.48,19.37 12.48,68.3 44.57,81.58 45.37,25.81 "></polygon> <polygon class="st1" points="87.52,19.63 87.52,70.75 44.57,81.58 45.37,25.81 "></polygon> <ellipse transform="matrix(0.0932 -0.9957 0.9957 0.0932 16.9626 111.0221)" class="st3" cx="69.43" cy="46.2" rx="19.17" ry="14.49"></ellipse> <path class="st4" d="M71.64,27.51c-2.48-0.39-4.27,0.39-6.12,2.05c-1.73,1.55-2.97,3.79-3.06,6.13c-0.08,2.15,0.66,4.05,1.41,6.01 c0.61,1.59,1.16,3.88,3.01,4.35c0.43,0.11,0.76-0.09,1.01-0.41c0.74-0.96,0.48-1.95,0.33-3.11c-0.22-1.68-0.3-2.99,0.36-4.61 c0.44-1.07,0.98-2.2,1.84-3c1.12-1.04,2.2-1.57,3.01-2.97C74.33,30.42,73.62,27.82,71.64,27.51z"></path> <path class="st4" d="M65.41,44.85c-0.18,0.16-0.32,0.35-0.43,0.54c-0.47,0.44-0.67,1.03-0.93,1.69c-0.41,1.06-0.73,1.43-1.52,2.23 c-1.4,1.41-2.56,2.13-4.54,2.5c-1.08,0.2-1.84,0.72-2.35,1.41c0.72,2.77,1.93,5.23,3.51,7.2c0.37-0.02,0.75-0.08,1.15-0.21 c3.72-1.21,7.26-4.08,8.21-8.05c0.13-0.56,0.21-1.76,0.13-3.05c0.99,0.12,1.98,0.23,2.96,0.42c0.86,0.18,1.68,0.43,2.5,0.75 c1,0.38,1.11,0.82,0.73-0.2c0.91,2.46,3.35,3.94,5.93,2.85c2.63-1.11,3.13-3.81,2.1-6.23C80.21,40.47,69.79,40.96,65.41,44.85z"></path> <ellipse transform="matrix(0.0932 -0.9957 0.9957 0.0932 15.9171 109.6338)" class="st2" cx="68.14" cy="46.08" rx="3.91" ry="2.95"></ellipse> <g> <path class="st1" d="M40.07,34.86c-0.48-0.16-0.9-0.4-1.39-0.53c-0.48-0.12-0.96-0.24-1.43-0.37c-1.01-0.28-2.02-0.53-3.04-0.78 c-1.97-0.48-3.95-0.96-5.92-1.43c-1.92-0.46-3.83-0.92-5.76-1.34c-1.94-0.42-3.92-1.01-5.89-1.21c-0.43-0.04-0.44,0.57-0.1,0.71 c1.81,0.7,3.82,1.05,5.7,1.54c1.97,0.51,3.94,0.97,5.92,1.45c1.92,0.46,3.83,0.91,5.75,1.35c0.96,0.22,1.92,0.45,2.89,0.64 c0.48,0.1,0.96,0.2,1.44,0.31c0.57,0.13,1.08,0.12,1.67,0.2C40.28,35.45,40.43,34.98,40.07,34.86z"></path> <path class="st1" d="M39.8,42.11c-0.47-0.18-0.88-0.43-1.36-0.57c-0.47-0.14-0.95-0.27-1.42-0.41c-1-0.31-2-0.59-3.01-0.87 c-1.95-0.55-3.91-1.08-5.86-1.61c-1.9-0.51-3.79-1.04-5.7-1.51c-1.92-0.48-3.87-1.13-5.84-1.39c-0.43-0.06-0.46,0.56-0.12,0.7 c1.79,0.75,3.78,1.17,5.64,1.72c1.94,0.57,3.9,1.1,5.86,1.63c1.9,0.52,3.79,1.03,5.69,1.53c0.95,0.25,1.9,0.51,2.86,0.73 c0.48,0.11,0.96,0.23,1.43,0.36c0.57,0.15,1.08,0.15,1.66,0.25C39.98,42.71,40.15,42.24,39.8,42.11z"></path> <path class="st1" d="M39.52,49.35c-0.46-0.19-0.87-0.46-1.34-0.61c-0.47-0.15-0.94-0.29-1.4-0.45c-0.99-0.34-1.98-0.65-2.97-0.97 c-1.93-0.61-3.86-1.21-5.8-1.8c-1.88-0.57-3.75-1.16-5.64-1.69c-1.9-0.54-3.83-1.25-5.78-1.58c-0.43-0.07-0.48,0.54-0.14,0.7 c1.76,0.81,3.73,1.29,5.57,1.89c1.92,0.63,3.86,1.22,5.8,1.81c1.88,0.58,3.76,1.15,5.64,1.71c0.94,0.28,1.88,0.57,2.83,0.82 c0.47,0.13,0.95,0.26,1.42,0.4c0.56,0.17,1.07,0.18,1.65,0.3C39.68,49.96,39.86,49.5,39.52,49.35z"></path> <path class="st1" d="M39.24,56.6c-0.46-0.21-0.85-0.49-1.32-0.66c-0.46-0.17-0.93-0.32-1.38-0.5c-0.98-0.37-1.96-0.72-2.94-1.06 c-1.91-0.67-3.82-1.33-5.74-1.98c-1.86-0.63-3.71-1.28-5.59-1.87c-1.88-0.6-3.79-1.38-5.73-1.76c-0.43-0.08-0.5,0.53-0.16,0.69 c1.73,0.86,3.69,1.4,5.51,2.07c1.9,0.69,3.82,1.34,5.73,2c1.86,0.64,3.72,1.27,5.58,1.89c0.93,0.31,1.86,0.63,2.8,0.91 c0.47,0.14,0.94,0.29,1.4,0.45c0.56,0.19,1.06,0.22,1.64,0.35C39.39,57.22,39.58,56.76,39.24,56.6z"></path> <path class="st1" d="M38.96,63.85c-0.45-0.22-0.84-0.51-1.3-0.7c-0.46-0.18-0.92-0.35-1.37-0.54c-0.96-0.4-1.94-0.78-2.91-1.15 c-1.89-0.73-3.78-1.45-5.68-2.17c-1.84-0.69-3.68-1.39-5.53-2.05c-1.86-0.66-3.75-1.5-5.68-1.95c-0.42-0.1-0.51,0.51-0.18,0.69 c1.71,0.92,3.65,1.52,5.45,2.25c1.88,0.76,3.78,1.46,5.67,2.18c1.84,0.7,3.68,1.38,5.52,2.07c0.92,0.34,1.84,0.68,2.78,1 c0.47,0.16,0.93,0.32,1.39,0.49c0.55,0.21,1.06,0.25,1.63,0.41C39.09,64.47,39.3,64.02,38.96,63.85z"></path> <path class="st1" d="M38.68,71.1c-0.45-0.24-0.82-0.54-1.28-0.74c-0.45-0.2-0.91-0.38-1.35-0.59c-0.95-0.43-1.91-0.84-2.88-1.25 c-1.87-0.79-3.74-1.57-5.62-2.35c-1.82-0.75-3.64-1.51-5.47-2.23c-1.85-0.72-3.71-1.62-5.62-2.13c-0.42-0.11-0.53,0.5-0.21,0.68 c1.68,0.98,3.6,1.64,5.38,2.42c1.86,0.82,3.74,1.59,5.61,2.36c1.82,0.76,3.64,1.5,5.47,2.24c0.91,0.37,1.82,0.74,2.75,1.09 c0.46,0.17,0.92,0.35,1.38,0.54c0.55,0.22,1.05,0.29,1.62,0.46C38.79,71.72,39.02,71.28,38.68,71.1z"></path> </g> </g> </svg> 