<?xml version="1.0" encoding="UTF-8"?> <!-- Generator: Adobe Illustrator 24.1.2, SVG Export Plug-In . SVG Version: 6.00 Build 0) --> <svg xmlns="http://www.w3.org/2000/svg" xmlns:xlink="http://www.w3.org/1999/xlink" version="1.1" id="Layer_1" x="0px" y="0px" viewBox="0 0 100 100" style="enable-background:new 0 0 100 100;" xml:space="preserve"> <style type="text/css"> .st0{fill:#B8BBBF;} .st1{fill:#D9E0E8;} .st2{fill:#267FFD;} </style> <g> <g> <polygon class="st0" points="27.08,77.67 25.62,76.21 66.76,22.86 68.22,24.32 "></polygon> </g> <g> <polygon class="st0" points="65.85,70.61 67.49,69.36 30.52,14 28.88,15.25 "></polygon> </g> <g> <rect x="20.33" y="82.32" class="st0" width="1.99" height="5.19"></rect> </g> <g> <rect x="38.15" y="84.3" class="st0" width="1.99" height="5.19"></rect> </g> <g> <rect x="80.4" y="79.12" class="st0" width="1.99" height="5.19"></rect> </g> <g> <polygon class="st0" points="24.22,73.2 20.33,76.24 20.33,83.32 59.95,87.51 83.21,79.71 76.75,69.19 71.47,69.19 58.2,82.45 49.14,84.72 38.66,82.27 "></polygon> </g> <g> <path class="st1" d="M52.5,4.9c-3.8,0-7.42,1.06-10.72,2.97c0.55-0.04,1.1-0.07,1.65-0.07c15.61,0,28.27,17.21,28.27,38.44 c0,19.11-10.26,34.96-23.7,37.94c1.46,0.33,2.96,0.5,4.49,0.5c15.61,0,28.27-17.86,28.27-39.89S68.11,4.9,52.5,4.9z"></path> </g> <g> <g> <path class="st2" d="M74.56,58.6c-3.61-3.52-8-6.6-12.06-9.58c-1.3-0.95-2.64-1.9-4.04-2.74c1.42-1.02,2.86-2,4.31-2.99 c2.85-1.95,5.72-3.82,8.74-5.5c4.61-2.56,0.44-9.73-4.13-7.07c-3.27,1.9-6.44,4.01-9.35,6.42c-1.53,1.27-3.7,3-5.24,4.91 c-2.49-3.98-5.93-7.41-9.32-10.59c-4.04-3.79-8.31-7.29-12.52-10.89c-1.95-1.67-4.77-1.72-6.43,0.44 c-1.63,2.11-0.94,4.89,1.21,6.33c4.42,2.96,8.62,6.3,12.76,9.64c3.88,3.13,7.76,6.49,12.16,8.88c-0.49,0.15-0.97,0.33-1.44,0.55 c-1.18,0.55-2.33,1.17-3.45,1.84c-2.58,1.54-4.99,3.35-7.46,5.06c-2.36,1.64-4.74,3.26-7.14,4.86c-2.49,1.66-5.17,3.16-7.46,5.1 c-2.81,2.38,0.77,6.29,3.73,4.83c2.54-1.25,4.88-3.13,7.22-4.75c2.48-1.71,4.94-3.45,7.39-5.21c2.33-1.68,4.66-3.34,6.84-5.22 c1.08-0.93,2.1-1.93,3.04-3c0.22-0.25,0.43-0.52,0.62-0.79c0.37,0.5,0.8,0.98,1.24,1.48c1.59,1.78,3.37,3.42,5.22,4.94 c3.61,2.98,7.16,6.32,11.09,8.87C73.62,66.74,77.55,61.52,74.56,58.6z"></path> <path class="st0" d="M26.05,68.72c-1.31,0-2.52-0.78-3.16-1.76c-0.7-1.07-0.91-2.66,0.6-3.93c1.64-1.38,3.49-2.56,5.28-3.69 c0.74-0.47,1.48-0.94,2.21-1.42c2.38-1.59,4.78-3.22,7.13-4.85c0.64-0.45,1.29-0.9,1.93-1.36c1.79-1.27,3.63-2.57,5.55-3.72 c1.15-0.68,2.31-1.31,3.47-1.85c0.25-0.12,0.52-0.23,0.82-0.34c-3.57-2.03-6.81-4.68-9.96-7.24c-0.55-0.45-1.09-0.89-1.64-1.33 c-4.22-3.41-8.38-6.71-12.74-9.62c-1.18-0.79-1.97-1.99-2.19-3.3c-0.2-1.22,0.12-2.46,0.91-3.47c0.79-1.02,1.85-1.63,3.07-1.75 c1.32-0.14,2.7,0.33,3.81,1.27c1.02,0.88,2.05,1.75,3.08,2.62c3.14,2.66,6.39,5.41,9.45,8.28c3.08,2.9,6.57,6.31,9.15,10.3 c1.38-1.62,3.14-3.08,4.57-4.26l0.45-0.37c2.69-2.24,5.76-4.35,9.39-6.45c1.39-0.81,2.88-0.83,4.2-0.07 c1.45,0.85,2.42,2.54,2.4,4.2c-0.02,1.48-0.78,2.71-2.16,3.48c-3.23,1.79-6.22,3.78-8.71,5.49c-1.31,0.9-2.62,1.8-3.92,2.72 c1.34,0.83,2.59,1.73,3.66,2.51l1.49,1.09c3.65,2.66,7.42,5.41,10.6,8.52c1.72,1.68,1.3,3.96,0.17,5.37 c-1.11,1.38-3.1,2.21-5.05,0.94c-2.89-1.88-5.6-4.2-8.22-6.44c-0.97-0.83-1.93-1.65-2.89-2.45c-2.06-1.7-3.78-3.33-5.25-4.98 c-0.36-0.4-0.69-0.78-1.01-1.17c-0.13,0.17-0.26,0.33-0.39,0.48c-0.91,1.04-1.95,2.06-3.07,3.03c-2.11,1.82-4.41,3.47-6.63,5.07 l-0.23,0.17c-2.43,1.75-4.92,3.5-7.39,5.21c-0.6,0.41-1.19,0.84-1.79,1.27c-1.74,1.26-3.55,2.55-5.46,3.5 C27.05,68.62,26.54,68.72,26.05,68.72z M27.79,19.66c-0.13,0-0.26,0.01-0.39,0.02c-1.05,0.11-1.96,0.63-2.64,1.52 c-0.68,0.88-0.96,1.94-0.79,3c0.19,1.14,0.89,2.19,1.92,2.89c4.38,2.93,8.54,6.24,12.78,9.66c0.55,0.44,1.09,0.89,1.64,1.33 c3.3,2.69,6.71,5.47,10.47,7.51l0.63,0.34l-0.69,0.22c-0.57,0.18-1.01,0.35-1.41,0.53c-1.14,0.54-2.29,1.15-3.42,1.82 c-1.9,1.13-3.73,2.43-5.51,3.69c-0.64,0.46-1.28,0.91-1.93,1.36c-2.36,1.64-4.76,3.27-7.14,4.86c-0.73,0.49-1.47,0.96-2.22,1.43 c-1.77,1.12-3.61,2.29-5.21,3.64c-1.02,0.86-1.2,2.03-0.48,3.13c0.75,1.15,2.41,1.91,3.88,1.19c1.87-0.92,3.65-2.2,5.38-3.44 c0.6-0.43,1.2-0.87,1.8-1.28c2.47-1.71,4.95-3.46,7.38-5.2l0.23-0.17c2.21-1.59,4.49-3.23,6.58-5.04 c1.1-0.95,2.12-1.95,3.01-2.97c0.19-0.22,0.39-0.46,0.6-0.76l0.25-0.34l0.25,0.34c0.36,0.49,0.78,0.96,1.22,1.45 c1.45,1.62,3.14,3.23,5.18,4.91c0.97,0.8,1.93,1.63,2.9,2.46c2.6,2.23,5.3,4.54,8.16,6.4c1.63,1.06,3.3,0.36,4.24-0.81 c0.96-1.2,1.33-3.13-0.12-4.54c-3.15-3.07-6.91-5.81-10.54-8.46l-1.49-1.09c-1.16-0.85-2.55-1.85-4.01-2.72l-0.4-0.24l0.38-0.27 c1.43-1.02,2.87-2,4.31-2.99c2.51-1.72,5.51-3.71,8.76-5.52c1.18-0.65,1.83-1.7,1.85-2.94c0.01-1.45-0.83-2.92-2.1-3.66 c-1.12-0.65-2.39-0.63-3.58,0.07c-3.6,2.09-6.64,4.18-9.31,6.39l-0.45,0.37c-1.5,1.24-3.37,2.79-4.75,4.5l-0.27,0.34l-0.23-0.37 c-2.55-4.08-6.13-7.58-9.27-10.53c-3.05-2.87-6.29-5.61-9.43-8.26c-1.03-0.87-2.06-1.74-3.08-2.62 C29.87,20.06,28.82,19.66,27.79,19.66z"></path> </g> </g> <g> <path class="st0" d="M24.22,44.8c0-16.68,7.25-30.96,17.55-36.92c-1.56,0.12,5.02-2.43,3.5-2.1c-10.05,2.21-17.3,7.63-20.85,12.01 c-5.69,7.03-9.27,17.18-9.27,28.46c0,17.23,8.34,31.81,19.83,36.69c2.67,1.13,12.12,2.24,16.19,2.14c3.16-0.07-4.66-0.57-3.17-0.9 C34.53,81.15,24.22,64.67,24.22,44.8z"></path> </g> <g> <path class="st0" d="M52.5,85.3c-15.93,0-28.89-18.17-28.89-40.51S36.57,4.29,52.5,4.29S81.39,22.46,81.39,44.8 S68.43,85.3,52.5,85.3z M52.5,5.52c-15.25,0-27.66,17.62-27.66,39.28S37.25,84.07,52.5,84.07S80.16,66.45,80.16,44.8 S67.75,5.52,52.5,5.52z"></path> </g> <g> <polygon class="st0" points="35.6,76.24 34.14,74.78 75.29,21.44 76.75,22.89 "></polygon> </g> <g> <polygon class="st0" points="74.38,69.19 76.02,67.94 37.81,10.58 36.17,11.83 "></polygon> </g> <g> <circle class="st1" cx="18.76" cy="88.38" r="3.67"></circle> </g> <g> <circle class="st1" cx="37.81" cy="92.05" r="3.67"></circle> </g> <g> <ellipse class="st1" cx="82.39" cy="84.72" rx="2.52" ry="3.67"></ellipse> </g> </g> </svg> 