<?xml version="1.0" encoding="UTF-8"?> <svg xmlns="http://www.w3.org/2000/svg" id="Layer_1" data-name="Layer 1" viewBox="0 0 150 150"><defs><style> .cls-1 { fill: #2094f8; } .cls-2 { fill: #359ef4; } .cls-3 { fill: #52aaed; } .cls-4 { fill: #2596f7; } .cls-5 { fill: #128efb; } .cls-6 { fill: #2797f7; } .cls-7 { fill: #45a4f0; } .cls-8 { fill: #118dfb; } .cls-9 { fill: #0488fe; } .cls-10 { fill: #138efb; } .cls-11 { fill: #1890fa; } .cls-12 { fill: #51aaee; } .cls-13 { fill: #0287ff; } .cls-14 { fill: #148ffb; } .cls-15 { fill: #4ea8ee; } .cls-16 { fill: #2496f7; } .cls-17 { fill: #46a5f0; } .cls-18 { fill: #389ff3; } .cls-19 { fill: #2e9af5; } .cls-20 { fill: #49a6ef; } .cls-21 { fill: #3ea1f2; } .cls-22 { fill: #1991fa; } .cls-23 { fill: #0a8afd; } .cls-24 { fill: #2d9af5; } .cls-25 { fill: #0889fd; } .cls-26 { fill: #0689fe; } .cls-27 { fill: #2194f8; } .cls-28 { fill: #2c9af5; } .cls-29 { fill: #54abed; } .cls-30 { fill: #108dfc; } .cls-31 { fill: #369ef3; } .cls-32 { fill: #3ca1f2; } .cls-33 { fill: #d9e0e8; } .cls-34 { fill: #3aa0f3; } .cls-35 { fill: #267ffd; } .cls-36 { fill: #2a99f6; } .cls-37 { fill: #3da1f2; } .cls-38 { fill: #4aa7ef; } .cls-39 { fill: #fff; } .cls-40 { fill: #2b99f6; } .cls-41 { fill: #53abed; } .cls-42 { fill: #379ef3; } .cls-43 { fill: #098afd; } .cls-44 { fill: #1e93f9; } .cls-45 { fill: #2697f7; } .cls-46 { fill: #339df4; } .cls-47 { fill: #0f8dfc; } .cls-48 { fill: #42a3f1; } .cls-49 { fill: #ced7e0; } .cls-50 { fill: #2295f8; } .cls-51 { fill: #2a98f6; } .cls-52 { fill: #399ff3; } .cls-53 { fill: #47a5f0; } .cls-54 { fill: #48a6f0; } .cls-55 { fill: #0387fe; } .cls-56 { fill: #4da8ee; } .cls-57 { fill: #3fa2f1; } .cls-58 { fill: #1f93f8; } .cls-59 { fill: #1790fa; } .cls-60 { fill: #3ba0f2; } .cls-61 { fill: #4ca8ef; } .cls-62 { fill: #0789fe; } .cls-63 { fill: #40a2f1; } .cls-64 { fill: #309bf5; } .cls-65 { fill: #44a4f0; } .cls-66 { fill: #0b8bfd; } .cls-67 { fill: #2395f8; } .cls-68 { fill: #158ffb; } .cls-69 { fill: #0588fe; } .cls-70 { fill: #1690fa; } .cls-71 { fill: #1c92f9; } .cls-72 { fill: #50a9ee; } .cls-73 { fill: #0d8cfc; } .cls-74 { fill: #41a3f1; } .cls-75 { fill: #0e8cfc; } .cls-76 { fill: #0c8bfc; } .cls-77 { fill: #329cf4; } .cls-78 { fill: #1d93f9; } .cls-79 { fill: #4ba7ef; } .cls-80 { fill: #2f9bf5; } .cls-81 { fill: #1b92f9; } .cls-82 { fill: #319cf4; } .cls-83 { fill: #0186ff; } .cls-84 { fill: #1a91f9; } .cls-85 { fill: #4fa9ee; } .cls-86 { fill: #349df4; } .cls-87 { fill: #2897f7; } .cls-88 { fill: #0086ff; } .cls-89 { fill: #2998f6; } .cls-90 { fill: #43a4f1; } .cls-91 { fill: #c5d8ed; } </style></defs><polyline class="cls-33" points="4.26 54.26 7.06 83.81 74.91 124.26 90.94 113.45 140.71 80.66 140.71 50.91"></polyline><polygon class="cls-35" points="4.26 54.26 71.37 25.74 140.71 50.91 75.56 89.77 4.26 54.26"></polygon><polygon class="cls-91" points="107.7 70.61 41.79 38.34 43.52 37.65 109.26 69.76 107.7 70.61"></polygon><path class="cls-39" d="M81.1,92.14c-1.14.7-1.71,1.96-1.49,4.01v18.64c.6,1.29,1.9,1.29,3.08,0l2.61-2.61,13.98-13.98v-12.3c-.58-1.99-1.98-2.52-4.1-1.77l-14.07,8.02Z"></path><path class="cls-39" d="M119.47,66.95c-1.14.7-1.71,1.96-1.49,4.01v18.64c.6,1.29,1.9,1.29,3.08,0l2.61-2.61,13.98-13.98v-12.3c-.58-1.99-1.98-2.52-4.1-1.77l-14.07,8.02Z"></path><path class="cls-49" d="M122.86,76.81c-.4-2.39.9-5.77,2.89-7.55s3.94-1.28,4.34,1.11-.9,5.77-2.89,7.55-3.94,1.28-4.34-1.11Z"></path><path class="cls-49" d="M82.38,103.79c-.4-2.41.9-5.82,2.92-7.62s3.98-1.29,4.38,1.12-.9,5.82-2.92,7.62c-2.02,1.79-3.98,1.29-4.38-1.12Z"></path><g><path class="cls-88" d="M91.06,106.82c-.78-4.66,1.75-11.25,5.64-14.71,3.89-3.46,7.68-2.49,8.46,2.17s-1.75,11.25-5.64,14.71c-3.89,3.46-7.68,2.49-8.46-2.17Z"></path><path class="cls-83" d="M90.96,106.78c-.77-4.63,1.73-11.18,5.6-14.62,3.87-3.44,7.63-2.48,8.4,2.15s-1.73,11.18-5.6,14.62c-3.87,3.44-7.63,2.48-8.4-2.15Z"></path><path class="cls-13" d="M90.86,106.74c-.77-4.6,1.72-11.11,5.57-14.53,3.84-3.42,7.58-2.46,8.35,2.14s-1.72,11.11-5.57,14.53c-3.84,3.42-7.58,2.46-8.35-2.14Z"></path><path class="cls-55" d="M90.76,106.7c-.76-4.57,1.71-11.04,5.53-14.44,3.82-3.4,7.54-2.45,8.3,2.13s-1.71,11.04-5.53,14.44c-3.82,3.4-7.54,2.45-8.3-2.13Z"></path><path class="cls-9" d="M90.66,106.66c-.76-4.55,1.7-10.97,5.5-14.35,3.8-3.38,7.49-2.43,8.25,2.11.76,4.55-1.7,10.97-5.5,14.35-3.8,3.38-7.49,2.43-8.25-2.11Z"></path><path class="cls-69" d="M90.56,106.62c-.75-4.52,1.69-10.9,5.46-14.26,3.77-3.36,7.44-2.42,8.2,2.1s-1.69,10.9-5.46,14.26c-3.77,3.36-7.44,2.42-8.2-2.1Z"></path><path class="cls-26" d="M90.47,106.59c-.75-4.49,1.68-10.83,5.43-14.17,3.75-3.34,7.4-2.4,8.15,2.09.75,4.49-1.68,10.83-5.43,14.17-3.75,3.34-7.4,2.4-8.15-2.09Z"></path><path class="cls-62" d="M90.37,106.55c-.75-4.46,1.67-10.76,5.4-14.08,3.72-3.31,7.35-2.39,8.09,2.07.75,4.46-1.67,10.76-5.4,14.08-3.72,3.31-7.35,2.39-8.09-2.07Z"></path><path class="cls-25" d="M90.27,106.51c-.74-4.43,1.66-10.69,5.36-13.99,3.7-3.29,7.3-2.37,8.04,2.06s-1.66,10.69-5.36,13.99c-3.7,3.29-7.3,2.37-8.04-2.06Z"></path><path class="cls-43" d="M90.17,106.47c-.74-4.4,1.65-10.63,5.33-13.9,3.68-3.27,7.25-2.36,7.99,2.05s-1.65,10.63-5.33,13.9c-3.68,3.27-7.25,2.36-7.99-2.05Z"></path><path class="cls-23" d="M90.07,106.43c-.73-4.37,1.64-10.56,5.29-13.81,3.65-3.25,7.21-2.34,7.94,2.03.73,4.37-1.64,10.56-5.29,13.81-3.65,3.25-7.21,2.34-7.94-2.03Z"></path><path class="cls-66" d="M89.97,106.39c-.73-4.35,1.63-10.49,5.26-13.72s7.16-2.33,7.89,2.02-1.63,10.49-5.26,13.72c-3.63,3.23-7.16,2.33-7.89-2.02Z"></path><path class="cls-76" d="M89.87,106.36c-.72-4.32,1.62-10.42,5.22-13.63,3.61-3.21,7.11-2.31,7.83,2.01.72,4.32-1.62,10.42-5.22,13.63-3.61,3.21-7.11,2.31-7.83-2.01Z"></path><path class="cls-73" d="M89.77,106.32c-.72-4.29,1.61-10.35,5.19-13.54s7.07-2.29,7.78,1.99c.72,4.29-1.61,10.35-5.19,13.54-3.58,3.19-7.07,2.29-7.78-1.99Z"></path><path class="cls-75" d="M89.67,106.28c-.71-4.26,1.6-10.28,5.15-13.45s7.02-2.28,7.73,1.98-1.6,10.28-5.15,13.45c-3.56,3.17-7.02,2.28-7.73-1.98Z"></path><path class="cls-47" d="M89.57,106.24c-.71-4.23,1.59-10.21,5.12-13.36,3.53-3.15,6.97-2.26,7.68,1.97s-1.59,10.21-5.12,13.36c-3.53,3.15-6.97,2.26-7.68-1.97Z"></path><path class="cls-30" d="M89.48,106.2c-.7-4.2,1.57-10.14,5.08-13.27s6.93-2.25,7.63,1.95c.7,4.2-1.57,10.14-5.08,13.27-3.51,3.12-6.93,2.25-7.63-1.95Z"></path><path class="cls-8" d="M89.38,106.16c-.7-4.17,1.56-10.07,5.05-13.18,3.49-3.1,6.88-2.23,7.58,1.94s-1.56,10.07-5.05,13.18c-3.49,3.1-6.88,2.23-7.58-1.94Z"></path><path class="cls-5" d="M89.28,106.12c-.69-4.15,1.55-10.01,5.02-13.09,3.46-3.08,6.83-2.22,7.52,1.93s-1.55,10.01-5.02,13.09c-3.46,3.08-6.83,2.22-7.52-1.93Z"></path><path class="cls-10" d="M89.18,106.09c-.69-4.12,1.54-9.94,4.98-13s6.78-2.2,7.47,1.91c.69,4.12-1.54,9.94-4.98,13-3.44,3.06-6.78,2.2-7.47-1.91Z"></path><path class="cls-14" d="M89.08,106.05c-.68-4.09,1.53-9.87,4.95-12.91s6.74-2.19,7.42,1.9-1.53,9.87-4.95,12.91c-3.42,3.04-6.74,2.19-7.42-1.9Z"></path><path class="cls-68" d="M88.98,106.01c-.68-4.06,1.52-9.8,4.91-12.82,3.39-3.02,6.69-2.17,7.37,1.89s-1.52,9.8-4.91,12.82c-3.39,3.02-6.69,2.17-7.37-1.89Z"></path><path class="cls-70" d="M88.88,105.97c-.67-4.03,1.51-9.73,4.88-12.73s6.64-2.16,7.32,1.87-1.51,9.73-4.88,12.73c-3.37,3-6.64,2.16-7.32-1.87Z"></path><path class="cls-59" d="M88.78,105.93c-.67-4,1.5-9.66,4.84-12.64s6.6-2.14,7.27,1.86-1.5,9.66-4.84,12.64c-3.34,2.98-6.6,2.14-7.27-1.86Z"></path><path class="cls-11" d="M88.68,105.89c-.66-3.98,1.49-9.59,4.81-12.55,3.32-2.95,6.55-2.13,7.21,1.85.66,3.98-1.49,9.59-4.81,12.55-3.32,2.95-6.55,2.13-7.21-1.85Z"></path><path class="cls-22" d="M88.59,105.86c-.66-3.95,1.48-9.52,4.77-12.46s6.5-2.11,7.16,1.83-1.48,9.52-4.77,12.46c-3.3,2.93-6.5,2.11-7.16-1.83Z"></path><path class="cls-84" d="M88.49,105.82c-.65-3.92,1.47-9.46,4.74-12.37s6.46-2.1,7.11,1.82-1.47,9.46-4.74,12.37c-3.27,2.91-6.46,2.1-7.11-1.82Z"></path><path class="cls-81" d="M88.39,105.78c-.65-3.89,1.46-9.39,4.71-12.28s6.41-2.08,7.06,1.81-1.46,9.39-4.71,12.28c-3.25,2.89-6.41,2.08-7.06-1.81Z"></path><path class="cls-71" d="M88.29,105.74c-.64-3.86,1.45-9.32,4.67-12.19s6.36-2.07,7.01,1.8c.64,3.86-1.45,9.32-4.67,12.19-3.22,2.87-6.36,2.07-7.01-1.8Z"></path><path class="cls-78" d="M88.19,105.7c-.64-3.83,1.44-9.25,4.64-12.1,3.2-2.85,6.31-2.05,6.95,1.78s-1.44,9.25-4.64,12.1c-3.2,2.85-6.31,2.05-6.95-1.78Z"></path><path class="cls-44" d="M88.09,105.66c-.64-3.8,1.42-9.18,4.6-12.01s6.27-2.04,6.9,1.77-1.42,9.18-4.6,12.01c-3.18,2.83-6.27,2.04-6.9-1.77Z"></path><path class="cls-58" d="M87.99,105.63c-.63-3.78,1.41-9.11,4.57-11.92s6.22-2.02,6.85,1.76-1.41,9.11-4.57,11.92c-3.15,2.81-6.22,2.02-6.85-1.76Z"></path><path class="cls-1" d="M87.89,105.59c-.63-3.75,1.4-9.04,4.53-11.83s6.17-2,6.8,1.74-1.4,9.04-4.53,11.83c-3.13,2.78-6.17,2-6.8-1.74Z"></path><path class="cls-27" d="M87.79,105.55c-.62-3.72,1.39-8.97,4.5-11.74s6.13-1.99,6.75,1.73-1.39,8.97-4.5,11.74c-3.11,2.76-6.13,1.99-6.75-1.73Z"></path><path class="cls-50" d="M87.69,105.51c-.62-3.69,1.38-8.9,4.46-11.65,3.08-2.74,6.08-1.97,6.7,1.72s-1.38,8.9-4.46,11.65c-3.08,2.74-6.08,1.97-6.7-1.72Z"></path><path class="cls-67" d="M87.6,105.47c-.61-3.66,1.37-8.84,4.43-11.56s6.03-1.96,6.64,1.7-1.37,8.84-4.43,11.56c-3.06,2.72-6.03,1.96-6.64-1.7Z"></path><path class="cls-16" d="M87.5,105.43c-.61-3.63,1.36-8.77,4.39-11.47,3.03-2.7,5.99-1.94,6.59,1.69.61,3.63-1.36,8.77-4.39,11.47-3.03,2.7-5.99,1.94-6.59-1.69Z"></path><path class="cls-4" d="M87.4,105.4c-.6-3.6,1.35-8.7,4.36-11.38s5.94-1.93,6.54,1.68-1.35,8.7-4.36,11.38c-3.01,2.68-5.94,1.93-6.54-1.68Z"></path><path class="cls-45" d="M87.3,105.36c-.6-3.58,1.34-8.63,4.33-11.29s5.89-1.91,6.49,1.66-1.34,8.63-4.33,11.29c-2.99,2.66-5.89,1.91-6.49-1.66Z"></path><path class="cls-6" d="M87.2,105.32c-.59-3.55,1.33-8.56,4.29-11.2s5.84-1.9,6.44,1.65-1.33,8.56-4.29,11.2c-2.96,2.64-5.84,1.9-6.44-1.65Z"></path><path class="cls-87" d="M87.1,105.28c-.59-3.52,1.32-8.49,4.26-11.11s5.8-1.88,6.39,1.64c.59,3.52-1.32,8.49-4.26,11.11-2.94,2.62-5.8,1.88-6.39-1.64Z"></path><path class="cls-89" d="M87,105.24c-.58-3.49,1.31-8.42,4.22-11.02s5.75-1.87,6.33,1.62-1.31,8.42-4.22,11.02c-2.91,2.59-5.75,1.87-6.33-1.62Z"></path><path class="cls-51" d="M86.9,105.2c-.58-3.46,1.3-8.35,4.19-10.93s5.7-1.85,6.28,1.61-1.3,8.35-4.19,10.93c-2.89,2.57-5.7,1.85-6.28-1.61Z"></path><path class="cls-36" d="M86.8,105.16c-.57-3.43,1.29-8.28,4.15-10.84,2.87-2.55,5.66-1.84,6.23,1.6s-1.29,8.28-4.15,10.84c-2.87,2.55-5.66,1.84-6.23-1.6Z"></path><path class="cls-40" d="M86.71,105.13c-.57-3.4,1.28-8.22,4.12-10.75s5.61-1.82,6.18,1.58-1.28,8.22-4.12,10.75c-2.84,2.53-5.61,1.82-6.18-1.58Z"></path><path class="cls-28" d="M86.61,105.09c-.56-3.38,1.26-8.15,4.08-10.66s5.56-1.81,6.13,1.57-1.26,8.15-4.08,10.66c-2.82,2.51-5.56,1.81-6.13-1.57Z"></path><path class="cls-24" d="M86.51,105.05c-.56-3.35,1.25-8.08,4.05-10.57,2.8-2.49,5.52-1.79,6.07,1.56s-1.25,8.08-4.05,10.57c-2.8,2.49-5.52,1.79-6.07-1.56Z"></path><path class="cls-19" d="M86.41,105.01c-.55-3.32,1.24-8.01,4.01-10.48s5.47-1.78,6.02,1.54c.55,3.32-1.24,8.01-4.01,10.48-2.77,2.47-5.47,1.78-6.02-1.54Z"></path><path class="cls-80" d="M86.31,104.97c-.55-3.29,1.23-7.94,3.98-10.39s5.42-1.76,5.97,1.53-1.23,7.94-3.98,10.39c-2.75,2.45-5.42,1.76-5.97-1.53Z"></path><path class="cls-64" d="M86.21,104.93c-.54-3.26,1.22-7.87,3.95-10.3s5.37-1.75,5.92,1.52-1.22,7.87-3.95,10.3c-2.72,2.42-5.37,1.75-5.92-1.52Z"></path><path class="cls-82" d="M86.11,104.9c-.54-3.23,1.21-7.8,3.91-10.21s5.33-1.73,5.87,1.5-1.21,7.8-3.91,10.21c-2.7,2.4-5.33,1.73-5.87-1.5Z"></path><path class="cls-77" d="M86.01,104.86c-.54-3.2,1.2-7.73,3.88-10.12s5.28-1.71,5.82,1.49-1.2,7.73-3.88,10.12c-2.68,2.38-5.28,1.71-5.82-1.49Z"></path><path class="cls-46" d="M85.91,104.82c-.53-3.18,1.19-7.66,3.84-10.03,2.65-2.36,5.23-1.7,5.76,1.48s-1.19,7.66-3.84,10.03c-2.65,2.36-5.23,1.7-5.76-1.48Z"></path><path class="cls-86" d="M85.81,104.78c-.53-3.15,1.18-7.6,3.81-9.94s5.19-1.68,5.71,1.46-1.18,7.6-3.81,9.94c-2.63,2.34-5.19,1.68-5.71-1.46Z"></path><path class="cls-2" d="M85.72,104.74c-.52-3.12,1.17-7.53,3.77-9.85s5.14-1.67,5.66,1.45-1.17,7.53-3.77,9.85c-2.61,2.32-5.14,1.67-5.66-1.45Z"></path><path class="cls-31" d="M85.62,104.7c-.52-3.09,1.16-7.46,3.74-9.76s5.09-1.65,5.61,1.44-1.16,7.46-3.74,9.76c-2.58,2.3-5.09,1.65-5.61-1.44Z"></path><path class="cls-42" d="M85.52,104.67c-.51-3.06,1.15-7.39,3.7-9.67,2.56-2.28,5.05-1.64,5.56,1.42s-1.15,7.39-3.7,9.67c-2.56,2.28-5.05,1.64-5.56-1.42Z"></path><path class="cls-18" d="M85.42,104.63c-.51-3.03,1.14-7.32,3.67-9.58s5-1.62,5.5,1.41-1.14,7.32-3.67,9.58c-2.53,2.25-5,1.62-5.5-1.41Z"></path><path class="cls-52" d="M85.32,104.59c-.5-3.01,1.13-7.25,3.64-9.49s4.95-1.61,5.45,1.4-1.13,7.25-3.64,9.49c-2.51,2.23-4.95,1.61-5.45-1.4Z"></path><path class="cls-34" d="M85.22,104.55c-.5-2.98,1.11-7.18,3.6-9.4s4.9-1.59,5.4,1.38-1.11,7.18-3.6,9.4c-2.49,2.21-4.9,1.59-5.4-1.38Z"></path><path class="cls-60" d="M85.12,104.51c-.49-2.95,1.1-7.11,3.57-9.31,2.46-2.19,4.86-1.58,5.35,1.37s-1.1,7.11-3.57,9.31c-2.46,2.19-4.86,1.58-5.35-1.37Z"></path><path class="cls-32" d="M85.02,104.47c-.49-2.92,1.09-7.05,3.53-9.22s4.81-1.56,5.3,1.36-1.09,7.05-3.53,9.22c-2.44,2.17-4.81,1.56-5.3-1.36Z"></path><path class="cls-37" d="M84.92,104.44c-.48-2.89,1.08-6.98,3.5-9.12s4.76-1.55,5.25,1.34-1.08,6.98-3.5,9.12c-2.41,2.15-4.76,1.55-5.25-1.34Z"></path><path class="cls-21" d="M84.83,104.4c-.48-2.86,1.07-6.91,3.46-9.03s4.72-1.53,5.19,1.33-1.07,6.91-3.46,9.03c-2.39,2.13-4.72,1.53-5.19-1.33Z"></path><path class="cls-57" d="M84.73,104.36c-.47-2.83,1.06-6.84,3.43-8.94s4.67-1.52,5.14,1.32-1.06,6.84-3.43,8.94c-2.37,2.11-4.67,1.52-5.14-1.32Z"></path><path class="cls-63" d="M84.63,104.32c-.47-2.81,1.05-6.77,3.39-8.85s4.62-1.5,5.09,1.3-1.05,6.77-3.39,8.85c-2.34,2.09-4.62,1.5-5.09-1.3Z"></path><path class="cls-74" d="M84.53,104.28c-.46-2.78,1.04-6.7,3.36-8.76s4.58-1.49,5.04,1.29-1.04,6.7-3.36,8.76c-2.32,2.06-4.58,1.49-5.04-1.29Z"></path><path class="cls-48" d="M84.43,104.24c-.46-2.75,1.03-6.63,3.32-8.67s4.53-1.47,4.99,1.28-1.03,6.63-3.32,8.67c-2.3,2.04-4.53,1.47-4.99-1.28Z"></path><path class="cls-90" d="M84.33,104.2c-.45-2.72,1.02-6.56,3.29-8.58s4.48-1.46,4.94,1.26-1.02,6.56-3.29,8.58c-2.27,2.02-4.48,1.46-4.94-1.26Z"></path><path class="cls-65" d="M84.23,104.17c-.45-2.69,1.01-6.49,3.26-8.49s4.43-1.44,4.88,1.25-1.01,6.49-3.26,8.49c-2.25,2-4.43,1.44-4.88-1.25Z"></path><path class="cls-7" d="M84.13,104.13c-.44-2.66,1-6.43,3.22-8.4s4.39-1.42,4.83,1.24c.44,2.66-1,6.43-3.22,8.4-2.22,1.98-4.39,1.42-4.83-1.24Z"></path><path class="cls-17" d="M84.03,104.09c-.44-2.63.99-6.36,3.19-8.31s4.34-1.41,4.78,1.22-.99,6.36-3.19,8.31c-2.2,1.96-4.34,1.41-4.78-1.22Z"></path><path class="cls-53" d="M83.93,104.05c-.44-2.61.98-6.29,3.15-8.22s4.29-1.39,4.73,1.21-.98,6.29-3.15,8.22c-2.18,1.94-4.29,1.39-4.73-1.21Z"></path><path class="cls-54" d="M83.84,104.01c-.43-2.58.97-6.22,3.12-8.13s4.25-1.38,4.68,1.2c.43,2.58-.97,6.22-3.12,8.13-2.15,1.92-4.25,1.38-4.68-1.2Z"></path><path class="cls-20" d="M83.74,103.97c-.43-2.55.95-6.15,3.08-8.04s4.2-1.36,4.62,1.18-.95,6.15-3.08,8.04c-2.13,1.89-4.2,1.36-4.62-1.18Z"></path><path class="cls-38" d="M83.64,103.94c-.42-2.52.94-6.08,3.05-7.95s4.15-1.35,4.57,1.17-.94,6.08-3.05,7.95c-2.1,1.87-4.15,1.35-4.57-1.17Z"></path><path class="cls-79" d="M83.54,103.9c-.42-2.49.93-6.01,3.01-7.86s4.1-1.33,4.52,1.16c.42,2.49-.93,6.01-3.01,7.86-2.08,1.85-4.1,1.33-4.52-1.16Z"></path><path class="cls-61" d="M83.44,103.86c-.41-2.46.92-5.94,2.98-7.77s4.06-1.32,4.47,1.15-.92,5.94-2.98,7.77c-2.06,1.83-4.06,1.32-4.47-1.15Z"></path><path class="cls-56" d="M83.34,103.82c-.41-2.43.91-5.87,2.94-7.68s4.01-1.3,4.42,1.13-.91,5.87-2.94,7.68c-2.03,1.81-4.01,1.3-4.42-1.13Z"></path><path class="cls-15" d="M83.24,103.78c-.4-2.41.9-5.81,2.91-7.59s3.96-1.29,4.37,1.12-.9,5.81-2.91,7.59c-2.01,1.79-3.96,1.29-4.37-1.12Z"></path><path class="cls-85" d="M83.14,103.74c-.4-2.38.89-5.74,2.88-7.5s3.92-1.27,4.31,1.11-.89,5.74-2.88,7.5c-1.99,1.77-3.92,1.27-4.31-1.11Z"></path><path class="cls-72" d="M83.04,103.71c-.39-2.35.88-5.67,2.84-7.41s3.87-1.26,4.26,1.09-.88,5.67-2.84,7.41c-1.96,1.75-3.87,1.26-4.26-1.09Z"></path><path class="cls-12" d="M82.95,103.67c-.39-2.32.87-5.6,2.81-7.32s3.82-1.24,4.21,1.08-.87,5.6-2.81,7.32c-1.94,1.72-3.82,1.24-4.21-1.08Z"></path><path class="cls-3" d="M82.85,103.63c-.38-2.29.86-5.53,2.77-7.23s3.78-1.23,4.16,1.07-.86,5.53-2.77,7.23c-1.91,1.7-3.78,1.23-4.16-1.07Z"></path><path class="cls-41" d="M82.75,103.59c-.38-2.26.85-5.46,2.74-7.14s3.73-1.21,4.11,1.05-.85,5.46-2.74,7.14c-1.89,1.68-3.73,1.21-4.11-1.05Z"></path><path class="cls-29" d="M82.65,103.55c-.37-2.23.84-5.39,2.7-7.05s3.68-1.2,4.06,1.04-.84,5.39-2.7,7.05c-1.87,1.66-3.68,1.2-4.06-1.04Z"></path></g><g><path class="cls-88" d="M131.51,79.86c-.78-4.66,1.75-11.25,5.64-14.71,3.89-3.46,7.68-2.49,8.46,2.17s-1.75,11.25-5.64,14.71c-3.89,3.46-7.68,2.49-8.46-2.17Z"></path><path class="cls-83" d="M131.41,79.82c-.77-4.63,1.73-11.18,5.6-14.62,3.87-3.44,7.63-2.48,8.4,2.15.77,4.63-1.73,11.18-5.6,14.62-3.87,3.44-7.63,2.48-8.4-2.15Z"></path><path class="cls-13" d="M131.31,79.79c-.77-4.6,1.72-11.11,5.57-14.53,3.84-3.42,7.58-2.46,8.35,2.14s-1.72,11.11-5.57,14.53c-3.84,3.42-7.58,2.46-8.35-2.14Z"></path><path class="cls-55" d="M131.21,79.75c-.76-4.57,1.71-11.04,5.53-14.44,3.82-3.4,7.54-2.45,8.3,2.13s-1.71,11.04-5.53,14.44c-3.82,3.4-7.54,2.45-8.3-2.13Z"></path><path class="cls-9" d="M131.11,79.71c-.76-4.55,1.7-10.97,5.5-14.35,3.8-3.38,7.49-2.43,8.25,2.11.76,4.55-1.7,10.97-5.5,14.35-3.8,3.38-7.49,2.43-8.25-2.11Z"></path><path class="cls-69" d="M131.01,79.67c-.75-4.52,1.69-10.9,5.46-14.26s7.44-2.42,8.2,2.1-1.69,10.9-5.46,14.26c-3.77,3.36-7.44,2.42-8.2-2.1Z"></path><path class="cls-26" d="M130.91,79.63c-.75-4.49,1.68-10.83,5.43-14.17s7.4-2.4,8.15,2.09c.75,4.49-1.68,10.83-5.43,14.17-3.75,3.34-7.4,2.4-8.15-2.09Z"></path><path class="cls-62" d="M130.81,79.59c-.75-4.46,1.67-10.76,5.4-14.08,3.72-3.31,7.35-2.39,8.09,2.07s-1.67,10.76-5.4,14.08c-3.72,3.31-7.35,2.39-8.09-2.07Z"></path><path class="cls-25" d="M130.71,79.56c-.74-4.43,1.66-10.69,5.36-13.99,3.7-3.29,7.3-2.37,8.04,2.06s-1.66,10.69-5.36,13.99c-3.7,3.29-7.3,2.37-8.04-2.06Z"></path><path class="cls-43" d="M130.62,79.52c-.74-4.4,1.65-10.63,5.33-13.9,3.68-3.27,7.25-2.36,7.99,2.05s-1.65,10.63-5.33,13.9c-3.68,3.27-7.25,2.36-7.99-2.05Z"></path><path class="cls-23" d="M130.52,79.48c-.73-4.37,1.64-10.56,5.29-13.81s7.21-2.34,7.94,2.03c.73,4.37-1.64,10.56-5.29,13.81-3.65,3.25-7.21,2.34-7.94-2.03Z"></path><path class="cls-66" d="M130.42,79.44c-.73-4.35,1.63-10.49,5.26-13.72,3.63-3.23,7.16-2.33,7.89,2.02s-1.63,10.49-5.26,13.72c-3.63,3.23-7.16,2.33-7.89-2.02Z"></path><path class="cls-76" d="M130.32,79.4c-.72-4.32,1.62-10.42,5.22-13.63,3.61-3.21,7.11-2.31,7.83,2.01.72,4.32-1.62,10.42-5.22,13.63-3.61,3.21-7.11,2.31-7.83-2.01Z"></path><path class="cls-73" d="M130.22,79.36c-.72-4.29,1.61-10.35,5.19-13.54s7.07-2.29,7.78,1.99-1.61,10.35-5.19,13.54c-3.58,3.19-7.07,2.29-7.78-1.99Z"></path><path class="cls-75" d="M130.12,79.33c-.71-4.26,1.6-10.28,5.15-13.45,3.56-3.17,7.02-2.28,7.73,1.98s-1.6,10.28-5.15,13.45c-3.56,3.17-7.02,2.28-7.73-1.98Z"></path><path class="cls-47" d="M130.02,79.29c-.71-4.23,1.59-10.21,5.12-13.36,3.53-3.15,6.97-2.26,7.68,1.97s-1.59,10.21-5.12,13.36c-3.53,3.15-6.97,2.26-7.68-1.97Z"></path><path class="cls-30" d="M129.92,79.25c-.7-4.2,1.57-10.14,5.08-13.27s6.93-2.25,7.63,1.95-1.57,10.14-5.08,13.27c-3.51,3.12-6.93,2.25-7.63-1.95Z"></path><path class="cls-8" d="M129.82,79.21c-.7-4.17,1.56-10.07,5.05-13.18,3.49-3.1,6.88-2.23,7.58,1.94s-1.56,10.07-5.05,13.18c-3.49,3.1-6.88,2.23-7.58-1.94Z"></path><path class="cls-5" d="M129.73,79.17c-.69-4.15,1.55-10.01,5.02-13.09,3.46-3.08,6.83-2.22,7.52,1.93s-1.55,10.01-5.02,13.09c-3.46,3.08-6.83,2.22-7.52-1.93Z"></path><path class="cls-10" d="M129.63,79.13c-.69-4.12,1.54-9.94,4.98-13s6.78-2.2,7.47,1.91c.69,4.12-1.54,9.94-4.98,13-3.44,3.06-6.78,2.2-7.47-1.91Z"></path><path class="cls-14" d="M129.53,79.1c-.68-4.09,1.53-9.87,4.95-12.91,3.42-3.04,6.74-2.19,7.42,1.9s-1.53,9.87-4.95,12.91c-3.42,3.04-6.74,2.19-7.42-1.9Z"></path><path class="cls-68" d="M129.43,79.06c-.68-4.06,1.52-9.8,4.91-12.82,3.39-3.02,6.69-2.17,7.37,1.89s-1.52,9.8-4.91,12.82c-3.39,3.02-6.69,2.17-7.37-1.89Z"></path><path class="cls-70" d="M129.33,79.02c-.67-4.03,1.51-9.73,4.88-12.73s6.64-2.16,7.32,1.87c.67,4.03-1.51,9.73-4.88,12.73-3.37,3-6.64,2.16-7.32-1.87Z"></path><path class="cls-59" d="M129.23,78.98c-.67-4,1.5-9.66,4.84-12.64s6.6-2.14,7.27,1.86-1.5,9.66-4.84,12.64c-3.34,2.98-6.6,2.14-7.27-1.86Z"></path><path class="cls-11" d="M129.13,78.94c-.66-3.98,1.49-9.59,4.81-12.55s6.55-2.13,7.21,1.85-1.49,9.59-4.81,12.55c-3.32,2.95-6.55,2.13-7.21-1.85Z"></path><path class="cls-22" d="M129.03,78.9c-.66-3.95,1.48-9.52,4.77-12.46,3.3-2.93,6.5-2.11,7.16,1.83s-1.48,9.52-4.77,12.46c-3.3,2.93-6.5,2.11-7.16-1.83Z"></path><path class="cls-84" d="M128.93,78.87c-.65-3.92,1.47-9.46,4.74-12.37s6.46-2.1,7.11,1.82-1.47,9.46-4.74,12.37c-3.27,2.91-6.46,2.1-7.11-1.82Z"></path><path class="cls-81" d="M128.83,78.83c-.65-3.89,1.46-9.39,4.71-12.28s6.41-2.08,7.06,1.81-1.46,9.39-4.71,12.28-6.41,2.08-7.06-1.81Z"></path><path class="cls-71" d="M128.74,78.79c-.64-3.86,1.45-9.32,4.67-12.19s6.36-2.07,7.01,1.8c.64,3.86-1.45,9.32-4.67,12.19-3.22,2.87-6.36,2.07-7.01-1.8Z"></path><path class="cls-78" d="M128.64,78.75c-.64-3.83,1.44-9.25,4.64-12.1s6.31-2.05,6.95,1.78-1.44,9.25-4.64,12.1c-3.2,2.85-6.31,2.05-6.95-1.78Z"></path><path class="cls-44" d="M128.54,78.71c-.64-3.8,1.42-9.18,4.6-12.01,3.18-2.83,6.27-2.04,6.9,1.77s-1.42,9.18-4.6,12.01c-3.18,2.83-6.27,2.04-6.9-1.77Z"></path><path class="cls-58" d="M128.44,78.67c-.63-3.78,1.41-9.11,4.57-11.92,3.15-2.81,6.22-2.02,6.85,1.76.63,3.78-1.41,9.11-4.57,11.92-3.15,2.81-6.22,2.02-6.85-1.76Z"></path><path class="cls-1" d="M128.34,78.63c-.63-3.75,1.4-9.04,4.53-11.83,3.13-2.78,6.17-2,6.8,1.74s-1.4,9.04-4.53,11.83c-3.13,2.78-6.17,2-6.8-1.74Z"></path><path class="cls-27" d="M128.24,78.6c-.62-3.72,1.39-8.97,4.5-11.74s6.13-1.99,6.75,1.73-1.39,8.97-4.5,11.74c-3.11,2.76-6.13,1.99-6.75-1.73Z"></path><path class="cls-50" d="M128.14,78.56c-.62-3.69,1.38-8.9,4.46-11.65s6.08-1.97,6.7,1.72-1.38,8.9-4.46,11.65c-3.08,2.74-6.08,1.97-6.7-1.72Z"></path><path class="cls-67" d="M128.04,78.52c-.61-3.66,1.37-8.84,4.43-11.56s6.03-1.96,6.64,1.7-1.37,8.84-4.43,11.56c-3.06,2.72-6.03,1.96-6.64-1.7Z"></path><path class="cls-16" d="M127.94,78.48c-.61-3.63,1.36-8.77,4.39-11.47,3.03-2.7,5.99-1.94,6.59,1.69s-1.36,8.77-4.39,11.47c-3.03,2.7-5.99,1.94-6.59-1.69Z"></path><path class="cls-4" d="M127.85,78.44c-.6-3.6,1.35-8.7,4.36-11.38s5.94-1.93,6.54,1.68-1.35,8.7-4.36,11.38c-3.01,2.68-5.94,1.93-6.54-1.68Z"></path><path class="cls-45" d="M127.75,78.4c-.6-3.58,1.34-8.63,4.33-11.29,2.99-2.66,5.89-1.91,6.49,1.66s-1.34,8.63-4.33,11.29c-2.99,2.66-5.89,1.91-6.49-1.66Z"></path><path class="cls-6" d="M127.65,78.37c-.59-3.55,1.33-8.56,4.29-11.2s5.84-1.9,6.44,1.65-1.33,8.56-4.29,11.2c-2.96,2.64-5.84,1.9-6.44-1.65Z"></path><path class="cls-87" d="M127.55,78.33c-.59-3.52,1.32-8.49,4.26-11.11s5.8-1.88,6.39,1.64-1.32,8.49-4.26,11.11c-2.94,2.62-5.8,1.88-6.39-1.64Z"></path><path class="cls-89" d="M127.45,78.29c-.58-3.49,1.31-8.42,4.22-11.02s5.75-1.87,6.33,1.62-1.31,8.42-4.22,11.02c-2.91,2.59-5.75,1.87-6.33-1.62Z"></path><path class="cls-51" d="M127.35,78.25c-.58-3.46,1.3-8.35,4.19-10.93,2.89-2.57,5.7-1.85,6.28,1.61s-1.3,8.35-4.19,10.93c-2.89,2.57-5.7,1.85-6.28-1.61Z"></path><path class="cls-36" d="M127.25,78.21c-.57-3.43,1.29-8.28,4.15-10.84s5.66-1.84,6.23,1.6-1.29,8.28-4.15,10.84c-2.87,2.55-5.66,1.84-6.23-1.6Z"></path><path class="cls-40" d="M127.15,78.17c-.57-3.4,1.28-8.22,4.12-10.75s5.61-1.82,6.18,1.58-1.28,8.22-4.12,10.75c-2.84,2.53-5.61,1.82-6.18-1.58Z"></path><path class="cls-28" d="M127.05,78.14c-.56-3.38,1.26-8.15,4.08-10.66s5.56-1.81,6.13,1.57-1.26,8.15-4.08,10.66c-2.82,2.51-5.56,1.81-6.13-1.57Z"></path><path class="cls-24" d="M126.95,78.1c-.56-3.35,1.25-8.08,4.05-10.57s5.52-1.79,6.07,1.56-1.25,8.08-4.05,10.57c-2.8,2.49-5.52,1.79-6.07-1.56Z"></path><path class="cls-19" d="M126.86,78.06c-.55-3.32,1.24-8.01,4.01-10.48s5.47-1.78,6.02,1.54-1.24,8.01-4.01,10.48c-2.77,2.47-5.47,1.78-6.02-1.54Z"></path><path class="cls-80" d="M126.76,78.02c-.55-3.29,1.23-7.94,3.98-10.39s5.42-1.76,5.97,1.53-1.23,7.94-3.98,10.39c-2.75,2.45-5.42,1.76-5.97-1.53Z"></path><path class="cls-64" d="M126.66,77.98c-.54-3.26,1.22-7.87,3.95-10.3,2.72-2.42,5.37-1.75,5.92,1.52s-1.22,7.87-3.95,10.3c-2.72,2.42-5.37,1.75-5.92-1.52Z"></path><path class="cls-82" d="M126.56,77.94c-.54-3.23,1.21-7.8,3.91-10.21s5.33-1.73,5.87,1.5-1.21,7.8-3.91,10.21c-2.7,2.4-5.33,1.73-5.87-1.5Z"></path><path class="cls-77" d="M126.46,77.91c-.54-3.2,1.2-7.73,3.88-10.12s5.28-1.71,5.82,1.49-1.2,7.73-3.88,10.12c-2.68,2.38-5.28,1.71-5.82-1.49Z"></path><path class="cls-46" d="M126.36,77.87c-.53-3.18,1.19-7.66,3.84-10.03s5.23-1.7,5.76,1.48-1.19,7.66-3.84,10.03c-2.65,2.36-5.23,1.7-5.76-1.48Z"></path><path class="cls-86" d="M126.26,77.83c-.53-3.15,1.18-7.6,3.81-9.94s5.19-1.68,5.71,1.46-1.18,7.6-3.81,9.94c-2.63,2.34-5.19,1.68-5.71-1.46Z"></path><path class="cls-2" d="M126.16,77.79c-.52-3.12,1.17-7.53,3.77-9.85s5.14-1.67,5.66,1.45-1.17,7.53-3.77,9.85c-2.61,2.32-5.14,1.67-5.66-1.45Z"></path><path class="cls-31" d="M126.06,77.75c-.52-3.09,1.16-7.46,3.74-9.76s5.09-1.65,5.61,1.44-1.16,7.46-3.74,9.76c-2.58,2.3-5.09,1.65-5.61-1.44Z"></path><path class="cls-42" d="M125.97,77.71c-.51-3.06,1.15-7.39,3.7-9.67s5.05-1.64,5.56,1.42-1.15,7.39-3.7,9.67c-2.56,2.28-5.05,1.64-5.56-1.42Z"></path><path class="cls-18" d="M125.87,77.67c-.51-3.03,1.14-7.32,3.67-9.58s5-1.62,5.5,1.41-1.14,7.32-3.67,9.58c-2.53,2.25-5,1.62-5.5-1.41Z"></path><path class="cls-52" d="M125.77,77.64c-.5-3.01,1.13-7.25,3.64-9.49s4.95-1.61,5.45,1.4-1.13,7.25-3.64,9.49c-2.51,2.23-4.95,1.61-5.45-1.4Z"></path><path class="cls-34" d="M125.67,77.6c-.5-2.98,1.11-7.18,3.6-9.4s4.9-1.59,5.4,1.38-1.11,7.18-3.6,9.4c-2.49,2.21-4.9,1.59-5.4-1.38Z"></path><path class="cls-60" d="M125.57,77.56c-.49-2.95,1.1-7.11,3.57-9.31,2.46-2.19,4.86-1.58,5.35,1.37s-1.1,7.11-3.57,9.31c-2.46,2.19-4.86,1.58-5.35-1.37Z"></path><path class="cls-32" d="M125.47,77.52c-.49-2.92,1.09-7.05,3.53-9.22s4.81-1.56,5.3,1.36-1.09,7.05-3.53,9.22c-2.44,2.17-4.81,1.56-5.3-1.36Z"></path><path class="cls-37" d="M125.37,77.48c-.48-2.89,1.08-6.98,3.5-9.12s4.76-1.55,5.25,1.34-1.08,6.98-3.5,9.12c-2.41,2.15-4.76,1.55-5.25-1.34Z"></path><path class="cls-21" d="M125.27,77.44c-.48-2.86,1.07-6.91,3.46-9.03,2.39-2.13,4.72-1.53,5.19,1.33s-1.07,6.91-3.46,9.03c-2.39,2.13-4.72,1.53-5.19-1.33Z"></path><path class="cls-57" d="M125.17,77.41c-.47-2.83,1.06-6.84,3.43-8.94s4.67-1.52,5.14,1.32-1.06,6.84-3.43,8.94c-2.37,2.11-4.67,1.52-5.14-1.32Z"></path><path class="cls-63" d="M125.07,77.37c-.47-2.81,1.05-6.77,3.39-8.85s4.62-1.5,5.09,1.3-1.05,6.77-3.39,8.85c-2.34,2.09-4.62,1.5-5.09-1.3Z"></path><path class="cls-74" d="M124.98,77.33c-.46-2.78,1.04-6.7,3.36-8.76s4.58-1.49,5.04,1.29-1.04,6.7-3.36,8.76c-2.32,2.06-4.58,1.49-5.04-1.29Z"></path><path class="cls-48" d="M124.88,77.29c-.46-2.75,1.03-6.63,3.32-8.67s4.53-1.47,4.99,1.28-1.03,6.63-3.32,8.67c-2.3,2.04-4.53,1.47-4.99-1.28Z"></path><path class="cls-90" d="M124.78,77.25c-.45-2.72,1.02-6.56,3.29-8.58s4.48-1.46,4.94,1.26-1.02,6.56-3.29,8.58c-2.27,2.02-4.48,1.46-4.94-1.26Z"></path><path class="cls-65" d="M124.68,77.21c-.45-2.69,1.01-6.49,3.26-8.49s4.43-1.44,4.88,1.25-1.01,6.49-3.26,8.49c-2.25,2-4.43,1.44-4.88-1.25Z"></path><path class="cls-7" d="M124.58,77.18c-.44-2.66,1-6.43,3.22-8.4s4.39-1.42,4.83,1.24-1,6.43-3.22,8.4c-2.22,1.98-4.39,1.42-4.83-1.24Z"></path><path class="cls-17" d="M124.48,77.14c-.44-2.63.99-6.36,3.19-8.31s4.34-1.41,4.78,1.22-.99,6.36-3.19,8.31-4.34,1.41-4.78-1.22Z"></path><path class="cls-53" d="M124.38,77.1c-.44-2.61.98-6.29,3.15-8.22s4.29-1.39,4.73,1.21-.98,6.29-3.15,8.22-4.29,1.39-4.73-1.21Z"></path><path class="cls-54" d="M124.28,77.06c-.43-2.58.97-6.22,3.12-8.13s4.25-1.38,4.68,1.2-.97,6.22-3.12,8.13c-2.15,1.92-4.25,1.38-4.68-1.2Z"></path><path class="cls-20" d="M124.18,77.02c-.43-2.55.95-6.15,3.08-8.04s4.2-1.36,4.62,1.18-.95,6.15-3.08,8.04-4.2,1.36-4.62-1.18Z"></path><path class="cls-38" d="M124.09,76.98c-.42-2.52.94-6.08,3.05-7.95s4.15-1.35,4.57,1.17-.94,6.08-3.05,7.95-4.15,1.35-4.57-1.17Z"></path><path class="cls-79" d="M123.99,76.95c-.42-2.49.93-6.01,3.01-7.86s4.1-1.33,4.52,1.16-.93,6.01-3.01,7.86-4.1,1.33-4.52-1.16Z"></path><path class="cls-61" d="M123.89,76.91c-.41-2.46.92-5.94,2.98-7.77s4.06-1.32,4.47,1.15-.92,5.94-2.98,7.77c-2.06,1.83-4.06,1.32-4.47-1.15Z"></path><path class="cls-56" d="M123.79,76.87c-.41-2.43.91-5.87,2.94-7.68s4.01-1.3,4.42,1.13-.91,5.87-2.94,7.68-4.01,1.3-4.42-1.13Z"></path><path class="cls-15" d="M123.69,76.83c-.4-2.41.9-5.81,2.91-7.59s3.96-1.29,4.37,1.12-.9,5.81-2.91,7.59-3.96,1.29-4.37-1.12Z"></path><path class="cls-85" d="M123.59,76.79c-.4-2.38.89-5.74,2.88-7.5s3.92-1.27,4.31,1.11-.89,5.74-2.88,7.5-3.92,1.27-4.31-1.11Z"></path><path class="cls-72" d="M123.49,76.75c-.39-2.35.88-5.67,2.84-7.41s3.87-1.26,4.26,1.09-.88,5.67-2.84,7.41-3.87,1.26-4.26-1.09Z"></path><path class="cls-12" d="M123.39,76.71c-.39-2.32.87-5.6,2.81-7.32s3.82-1.24,4.21,1.08-.87,5.6-2.81,7.32c-1.94,1.72-3.82,1.24-4.21-1.08Z"></path><path class="cls-3" d="M123.29,76.68c-.38-2.29.86-5.53,2.77-7.23s3.78-1.23,4.16,1.07-.86,5.53-2.77,7.23-3.78,1.23-4.16-1.07Z"></path><path class="cls-41" d="M123.2,76.64c-.38-2.26.85-5.46,2.74-7.14s3.73-1.21,4.11,1.05-.85,5.46-2.74,7.14-3.73,1.21-4.11-1.05Z"></path><path class="cls-29" d="M123.1,76.6c-.37-2.23.84-5.39,2.7-7.05s3.68-1.2,4.06,1.04-.84,5.39-2.7,7.05-3.68,1.2-4.06-1.04Z"></path></g></svg> 