<?xml version="1.0" encoding="UTF-8"?> <!-- Generator: Adobe Illustrator 24.1.2, SVG Export Plug-In . SVG Version: 6.00 Build 0) --> <svg xmlns="http://www.w3.org/2000/svg" xmlns:xlink="http://www.w3.org/1999/xlink" version="1.1" id="Layer_1" x="0px" y="0px" viewBox="0 0 100 100" style="enable-background:new 0 0 100 100;" xml:space="preserve"> <style type="text/css"> .st0{fill:#D9E0E8;} .st1{fill:#FFFFFF;} .st2{fill:#B8BBBF;} .st3{fill:#267FFD;} </style> <g> <g> <path class="st0" d="M63.98,82.26l-31.54,5.41V11.54L66.41,19l0,0c6.53-0.93,12.59,7.38,14.74,16.61l2.24,14.55l-0.92,10.6 c-2.05,8.77-7.4,16.4-14.94,21.31L63.98,82.26z"></path> </g> <g> <g> <path class="st1" d="M69.66,32.59c-2.44-0.1-3.5,3.34-4.25,5.13c-0.59,1.4-1.11,2.84-1.57,4.29c0-0.01,0-0.01,0-0.01 c-0.33-3.8-1.75-7.73-2.79-11.4c-0.53-1.88-1.07-3.77-1.72-5.62c-0.57-1.62-1.01-3.49-2.31-4.68c-0.84-0.77-2.07-0.4-2.44,0.64 c-0.59,1.67-0.08,3.58,0.19,5.29c0.28,1.82,0.66,3.62,1.04,5.42c0.38,1.8,0.81,3.58,1.23,5.37c0.44,1.88,0.72,3.91,1.47,5.69 c0.33,2.35,3.57,2.44,4.84,0.92c-0.2,0.68-0.38,1.37-0.56,2.06c-0.92,3.62,4.65,5.16,5.6,1.54c0.76-2.93,1.56-5.85,2.33-8.78 C71.09,37.03,72.36,32.69,69.66,32.59z"></path> </g> <g> <path class="st1" d="M58.03,44.33c-2.2-1.14-4.42-2.28-6.67-3.32c-1.98-0.92-4.21-2.01-6.43-1.56c-1.11,0.23-1.32,1.46-0.95,2.33 c0.82,1.93,3.16,3.2,4.9,4.21c2.03,1.19,4.1,2.32,6.18,3.43c1.44,0.77,3.16,0.33,4.03-1.06c0.13-0.21,0.21-0.47,0.3-0.7 C59.83,46.51,59.1,44.88,58.03,44.33z"></path> </g> <g> <path class="st1" d="M71.68,55.1c-1.21-1.95-2.85-3.7-4.5-5.28c-1.09-1.04-3.02-0.6-3.88,0.48c-0.58,0.73-0.69,1.55-0.47,2.31 c-0.59-0.01-1.13,0.23-1.74,0.62c-0.84,0.53-1.14,1.63-1.07,2.55c0.3,4.15,0.41,8.29,0.48,12.45c0.03,2-0.01,4-0.01,6 c0,1.69-0.28,3.7,0.98,5.01c0.23,0.24,0.52,0.29,0.81,0.11c1.46-0.92,1.67-2.75,1.97-4.33c0.43-2.22,0.68-4.49,0.91-6.74 c0.41-4.06,0.47-8.16,0.38-12.24c0.83,0.91,1.66,1.82,2.55,2.67c1.18,1.14,2.51,2.64,4.11,3.09c0.62,0.17,1.16-0.42,1.28-0.96 C73.88,59.05,72.61,56.6,71.68,55.1z"></path> </g> <g> <path class="st1" d="M60.88,54.49c-0.43-1.07-0.88-1.71-2.04-2.04c-0.94-0.26-2.19-0.02-2.84,0.75 c-1.49,1.77-3.06,3.49-4.43,5.36c-1.06,1.44-2.4,3.46-2,5.31c0.12,0.53,0.63,0.81,1.12,0.86c1.79,0.16,3.65-1.5,4.9-2.63 c1.62-1.46,3.05-3.17,4.54-4.76C60.79,56.63,61.27,55.45,60.88,54.49z"></path> </g> <g> <ellipse class="st2" cx="61.58" cy="49.61" rx="3" ry="5.29"></ellipse> </g> </g> <g> <path class="st3" d="M66.04,83.19c-5.04,0-9.72-3.57-13.16-10.04c-3.31-6.21-5.13-14.44-5.13-23.18s1.82-16.96,5.13-23.18 c3.44-6.47,8.12-10.04,13.16-10.04s9.72,3.57,13.16,10.04c3.31,6.21,5.13,14.44,5.13,23.18S82.5,66.94,79.2,73.16 C75.75,79.63,71.08,83.19,66.04,83.19z M66.04,19.38c-4.03,0-7.88,3.07-10.85,8.65c-3.11,5.84-4.82,13.64-4.82,21.95 s1.71,16.11,4.82,21.95c2.97,5.58,6.82,8.65,10.85,8.65s7.88-3.07,10.85-8.65c3.11-5.84,4.82-13.64,4.82-21.95 S80,33.87,76.89,28.03C73.92,22.45,70.07,19.38,66.04,19.38z"></path> </g> <g> <g> <path class="st3" d="M66.04,81.89c-9.38,0-16.98-14.29-16.98-31.91s7.6-31.91,16.98-31.91c0.2,0,0.39,0.02,0.59,0.03v-1.15H54.39 c-9.76,0-17.68,14.87-17.68,33.21c0,18.34,7.91,33.21,17.68,33.21h12.24v-1.52C66.43,81.87,66.23,81.89,66.04,81.89z"></path> </g> </g> <g> <rect x="20.88" y="11.54" class="st2" width="11.57" height="76.13"></rect> </g> <g> <rect x="65.39" y="19.08" transform="matrix(0.9812 -0.1931 0.1931 0.9812 -5.2024 13.2893)" class="st3" width="0.37" height="28.51"></rect> </g> <g> <rect x="71.91" y="50.89" transform="matrix(0.9812 -0.1931 0.1931 0.9812 -11.2233 15.1468)" class="st3" width="0.37" height="28.53"></rect> </g> <g> <rect x="58.73" y="34.4" transform="matrix(0.1905 -0.9817 0.9817 0.1905 23.9727 98.2531)" class="st3" width="25.67" height="0.37"></rect> </g> <g> <rect x="50.37" y="66.1" transform="matrix(0.1905 -0.9817 0.9817 0.1905 -11.9229 118.1129)" class="st3" width="30.56" height="0.37"></rect> </g> <g> <rect x="68.14" y="42.97" transform="matrix(0.7655 -0.6434 0.6434 0.7655 -9.9755 58.9489)" class="st3" width="15.5" height="0.37"></rect> </g> <g> <rect x="42.18" y="59.48" transform="matrix(0.7655 -0.6434 0.6434 0.7655 -25.1054 50.444)" class="st3" width="28.94" height="0.37"></rect> </g> <g> <rect x="75.66" y="47.07" transform="matrix(0.6037 -0.7972 0.7972 0.6037 -13.3096 82.0305)" class="st3" width="0.37" height="14.66"></rect> </g> <g> <rect x="55.87" y="25.17" transform="matrix(0.6037 -0.7972 0.7972 0.6037 -9.4566 60.4357)" class="st3" width="0.37" height="29.12"></rect> </g> <g> <path class="st3" d="M68.84,51.52c-0.81,0-1.44-1-1.44-2.28s0.63-2.28,1.44-2.28c0.81,0,1.44,1,1.44,2.28S69.64,51.52,68.84,51.52 z M68.84,47.33c-0.58,0-1.06,0.88-1.06,1.91c0,1.04,0.49,1.91,1.06,1.91s1.06-0.88,1.06-1.91C69.9,48.2,69.42,47.33,68.84,47.33z"></path> </g> </g> </svg> 