<?xml version="1.0" encoding="UTF-8"?> <svg xmlns="http://www.w3.org/2000/svg" id="Layer_1" data-name="Layer 1" viewBox="0 0 150 150"><defs><style> .cls-1 { fill: #d9e0e8; } .cls-1, .cls-2 { stroke: #267ffd; } .cls-1, .cls-2, .cls-3 { stroke-miterlimit: 10; } .cls-2, .cls-4 { fill: #c7c8c9; } .cls-5 { fill: #bcbcbc; } .cls-3 { fill: #267ffd; stroke: #c7c8c9; stroke-width: .75px; } </style></defs><path class="cls-1" d="M3.06,71.16s.04-.07.05-.1c.25-.54.39-3.78.52-4.71.22-1.65.51-3.31.83-4.94.91-4.68,2.37-9.45,4.39-13.78,3.45-7.41,9.53-15.3,17.24-18.58,5.2-2.22,10.71-2.29,15.96-.17,8.58,3.46,14.93,12.31,18.44,20.58,6.75,16.05,6.95,34.1.55,50.3-3.41,8.4-9.83,17.48-18.43,21.11-4.99,2.1-10.94,2.52-16.02.45-4.9-1.99-9.04-5.36-12.23-9.55-1.06-1.4-2-2.89-2.96-4.35-.97-1.48-2.14-2.94-2.83-4.58-2.26-5.4-3.83-11.06-4.7-16.85-.18-1.24-.37-2.48-.45-3.73-.06-.9,0-1.81-.11-2.7-.03-.28-.07-.65-.23-.89v-7.5ZM33.44,45.05c-1.01.14-2.01.26-2.99.54-4.16,1.19-7.63,4.17-10.21,7.56-6.14,8.08-7.7,19.21-6.34,29.05,1.03,7.39,4.35,15.6,10.46,20.22,3.49,2.64,7.35,4.09,11.74,3.72,5.11-.45,9.34-3.48,12.55-7.31,4.65-5.55,6.86-13.73,7.25-20.86.12-2.32.02-4.62-.19-6.93-.73-7.92-3.96-16.7-10.19-21.93-3.41-2.86-7.58-4.43-12.06-4.06Z"></path><path class="cls-3" d="M35.2,48.44c.07-.18,1.32,7.49,1.78,10.58l.67,4.56c.22,1.42.47,2.83.59,4.27,4.5-1.57,8.92-3.39,13.36-5.14-.73,1.31-1.96,2.7-2.89,3.9-1.84,2.33-3.66,4.67-5.47,7.02-.71.92-1.69,1.89-2.2,2.92.67,1.22,1.62,2.37,2.42,3.5.89,1.26,1.77,2.53,2.69,3.77,1.39,1.89,3.9,6.09,3.87,6.25-.15.05-2.97-1.19-4.22-1.79-2.53-1.22-5.11-2.38-7.57-3.76-.08,1.1-.47,2.2-.72,3.27l-1.29,5.68-1.47,6.45c-.26,1.13-.48,2.29-.84,3.39-.1-.63-.15-1.27-.24-1.91-.61-3.86-1.19-7.72-1.74-11.58l-.54-3.54c-.13-.84-.32-1.71-.29-2.56-2.87,1.31-5.81,2.5-8.74,3.65-1.4.55-2.84,1.19-4.29,1.59-.08-.15-.02-.25.06-.39.28-.47.68-.89,1.02-1.33.98-1.25,1.99-2.48,3.03-3.68,1.54-1.8,3.02-3.66,4.56-5.46.36-.42,1.88-2.02,1.99-2.39-.75-1.26-1.77-2.45-2.65-3.63-1.31-1.78-2.64-3.55-3.97-5.31-1.24-1.63-2.7-3.49-3.83-5.18l-.04-.07c1.02.3,2.01.82,2.98,1.25,2.16.96,4.31,1.93,6.44,2.93,1.22.57,2.47,1.24,3.75,1.68.34-1.29.53-2.67.79-3.99l1.61-8.05c.38-1.95,1.35-6.94,1.43-6.91ZM33.98,68.88c-1.03.29-1.76,1.04-2.28,1.95-1.27,2.22-1.49,5.37-.81,7.82.38,1.37,1.15,3.05,2.45,3.77.63.35,1.25.37,1.95.29,1.1-.33,1.78-1.06,2.32-2.04,1.3-2.38,1.47-5.44.69-8.02-.39-1.3-1.15-2.84-2.41-3.5-.62-.33-1.22-.33-1.89-.28Z"></path><path class="cls-2" d="M43.16,27.33c.77.05,1.55.21,2.32.29l6.12.68,23.75,2.65c10.11,1.09,20.22,2.24,30.32,3.45,3.68.39,7.36.82,11.03,1.28l4.57.53c2.39.27,4.66.5,6.9,1.46,9.58,4.1,15.49,14.93,17.5,24.73.47,2.32.87,4.55,1.01,6.91.03.41-.06,13.04-.28,14.23-.3,1.63-.59,3.28-.99,4.89-1.7,6.75-4.72,13.53-9.44,18.72-2.32,2.55-5.47,4.97-8.8,5.93-1.92.55-3.92.7-5.9.9-1.65.17-3.3.34-4.95.53-9.13,1.05-18.27,2.02-27.41,2.91l-31.07,3.29c-3.44.35-6.87.74-10.31,1.06-1.17.11-2.33.29-3.5.35,1.04-.51,2.08-.87,3.09-1.47,6.8-4.08,11.72-11.09,14.97-18.19,7.13-15.6,7.49-34.87,1.52-50.89-3.05-8.17-8.58-16.85-15.94-21.79-1.42-.95-2.94-1.71-4.49-2.42Z"></path><path class="cls-5" d="M128.75,78.34h2.11c-.08,3.21.11,6.44-.04,9.65l-1.99.02c-.05-3.22-.08-6.45-.08-9.67Z"></path><path class="cls-5" d="M111.14,78.29c1.72-.03,3.45-.01,5.17.04v1.89s-2.48,0-2.48,0c.06,2.48.03,4.98.03,7.46,0,.14,0,.14-.08.27-.62.17-1.42.07-2.07.06-.06-2.59-.04-5.19-.04-7.79-.83.03-1.66.05-2.49.06-.02-.65-.05-1.33,0-1.97.65-.04,1.31-.03,1.96-.03Z"></path><path class="cls-5" d="M101.41,78.29c.53,0,1.05.01,1.58.02,0,1.34,0,2.69.02,4.03,0,.87-.07,1.82.07,2.68.05.3.13.56.34.79.26.29.63.43,1.01.45.38.02.76-.12,1.04-.38.21-.21.3-.43.36-.72.17-.85.09-1.8.09-2.66,0-1.39-.02-2.77-.04-4.16.72-.04,1.44-.02,2.17-.02v2.44c0,1.37.09,2.79-.04,4.15-.09.95-.43,1.96-1.21,2.57-.83.65-2.09.82-3.12.69-.83-.1-1.6-.42-2.11-1.1-.34-.46-.52-1.01-.62-1.56-.27-1.46-.14-3.02-.14-4.5,0-.84-.08-1.74.05-2.57.18-.15.34-.12.57-.14Z"></path><path class="cls-5" d="M122.03,78.31c.82-.02,1.63-.01,2.45.01.3,1.14.87,2.35,1.27,3.48.73,2.06,1.33,4.21,2.23,6.2-.86-.04-1.72-.02-2.58-.03-.22-.73-.31-1.48-.56-2.2-1.03.06-2.09,0-3.11-.05-.23.74-.45,1.48-.63,2.24l-2.21-.02c.95-3.24,2.19-6.39,3.14-9.63Z"></path><path class="cls-4" d="M123.2,80.05c.2.2,1.01,3.35,1.17,3.88h-.81s-1.33.01-1.33.01l.97-3.9Z"></path><path class="cls-5" d="M86.57,78.29c.87-.02,1.74.02,2.61.05.48,1.7,1.04,3.39,1.52,5.09.43,1.5.77,3.05,1.31,4.52h-2.48c-.19-.66-.35-1.35-.53-2.04h-2.66s-.45,2.01-.45,2.01c-.77.04-1.55,0-2.32,0,.49-2.31,1.3-4.62,1.95-6.9.2-.69.46-2.16.78-2.69l.26-.06Z"></path><path class="cls-4" d="M87.61,80.4c.34.26.84,2.91.99,3.49h-.82s-1.09.05-1.09.05c.42-1.13.66-2.36.92-3.54Z"></path><path class="cls-5" d="M134.47,78.29c.66-.04,1.36-.03,2.02.07.83.13,1.73.44,2.22,1.15.39.56.51,1.32.37,1.98-.15.69-.63,1.32-1.26,1.65-.24.12-.49.17-.72.32.33.32.69.65.97,1.01.31.41.55.93.8,1.38.42.76.87,1.51,1.34,2.23-.69-.04-2.33.13-2.87-.16-.21-.11-.25-.3-.34-.51-.43-.98-.98-2.71-1.83-3.37-.12-.01-.11-.04-.19.03-.38.39-.26,3.26-.26,3.93h-2.09s0-9.59,0-9.59c.62-.05,1.23-.09,1.85-.12Z"></path><path class="cls-4" d="M135.05,79.96c.57,0,1.04.02,1.47.44.19.19.32.44.31.72-.02.41-.23.69-.51.96-.51.22-1,.2-1.55.2-.02-.64-.16-1.68.08-2.26l.2-.07Z"></path><path class="cls-5" d="M94.91,78.29c.88-.03,1.89-.08,2.75.17.66.19,1.24.58,1.56,1.2.33.64.4,1.49.16,2.17-.28.8-.83,1.2-1.57,1.53.97.76,1.72,3.4,1.89,4.63h-2.32s-.44-1.46-.44-1.46c-.26-.79-.54-1.57-.84-2.35-.36-.08-.71-.14-1.08-.17-.04,1.31-.03,2.62-.03,3.94l-2.19.04c-.1-3.19-.04-6.4-.03-9.59.71-.08,1.43-.08,2.14-.1Z"></path><path class="cls-4" d="M94.99,80.02c.66-.04,1.4-.1,1.96.33.2.15.33.34.35.59.04.42-.19.8-.44,1.12-.58.36-1.21.32-1.87.34v-2.37Z"></path><path class="cls-5" d="M73.79,78.28c.81-.01,1.63,0,2.44,0,.54,2.37,1.21,4.68,1.63,7.08.41-2.38,1.05-4.72,1.68-7.04,1.01-.03,2.02,0,3.03.02.17,3.2.22,6.4.42,9.6-.72,0-1.44,0-2.16-.01-.12-2.33-.07-4.69-.07-7.03,0-.16.03-.28-.07-.41-.32.59-.4,1.57-.58,2.24-.48,1.75-1.01,3.49-1.49,5.24h-1.71c-.22-1.17-.6-2.33-.9-3.48-.36-1.43-.66-2.87-.99-4.31,0,2.56-.07,5.21-.34,7.76-.64.03-1.28.01-1.92.01.11-1.02.1-2.07.15-3.1.06-1.26.17-2.51.23-3.77.04-.9,0-1.87.14-2.76l.51-.05Z"></path></svg> 