<?xml version="1.0" encoding="UTF-8"?> <svg xmlns="http://www.w3.org/2000/svg" id="Layer_1" data-name="Layer 1" viewBox="0 0 150 150"><defs><style> .cls-1 { fill: #c7c8c9; } .cls-2 { fill: #d9e0e8; } .cls-3 { fill: #267ffd; } .cls-4 { fill: #fff; } </style></defs><g><path class="cls-1" d="M43.49,143.46v-13.76s67.9,0,67.9,0v13.76c0,2.63-67.9,2.63-67.9,0Z"></path><polygon class="cls-2" points="43.52 129.67 111.35 129.67 114.08 126.33 41.24 126.33 43.52 129.67"></polygon><path class="cls-1" d="M41.09,126.41v-6.37c25.3-2.38,49.8-2.48,73.35.1v6.27H41.09Z"></path><path class="cls-4" d="M124.84,108.46c-6.73.05-37.34,0-37.34,0h-33.28s-16.82.05-23.55,0c.51.96,1.36,2.29,2.73,3.57,1.52,1.4,2.56,1.7,3.87,2.73,1.18.94,2.65,2.53,3.72,5.39l13.23.03,20.34.05h6.39l6.55-.02,27.02-.07c1.07-2.86,2.54-4.45,3.72-5.39,1.31-1.03,2.36-1.33,3.87-2.73,1.37-1.27,2.22-2.61,2.73-3.57Z"></path><path class="cls-3" d="M80.95,120.37h-6.39l-33.67-.09-.04-.09c-.85-2.28-2.09-4.07-3.67-5.33-.53-.42-1.01-.71-1.52-1.02-.72-.43-1.46-.88-2.36-1.72-1.1-1.02-2.03-2.23-2.76-3.6l-.11-.22h.24c6.65.05,23.38,0,23.55,0h33.28c.31,0,30.69.05,37.34,0h.24s-.11.21-.11.21c-.74,1.38-1.66,2.59-2.76,3.6-.9.84-1.64,1.28-2.36,1.72-.51.31-.99.6-1.52,1.02-1.58,1.26-2.82,3.05-3.67,5.32l-.04.09h-.1s-33.57.09-33.57.09ZM41.09,120l33.47.08,12.94-.02,26.92-.07c.87-2.28,2.12-4.08,3.73-5.36.55-.43,1.06-.74,1.55-1.04.7-.43,1.43-.87,2.31-1.68,1.01-.94,1.88-2.05,2.58-3.31-7.12.05-36.8,0-37.1,0h-33.28c-.17,0-16.49.05-23.3,0,.7,1.25,1.57,2.37,2.58,3.31.88.82,1.61,1.26,2.31,1.68.49.3,1,.61,1.55,1.04,1.6,1.27,2.86,3.07,3.73,5.36Z"></path><path class="cls-1" d="M43.15,6.54v13.76s67.9,0,67.9,0V6.54c0-2.63-67.9-2.63-67.9,0Z"></path><polygon class="cls-2" points="43.18 20.33 111.01 20.33 113.74 23.67 40.9 23.67 43.18 20.33"></polygon><path class="cls-1" d="M40.75,23.59v6.37c25.3,2.38,49.8,2.48,73.35-.1v-6.27H40.75Z"></path><path class="cls-4" d="M124.5,41.54c-6.73-.05-37.34,0-37.34,0h-33.28s-16.82-.05-23.55,0c.51-.96,1.36-2.29,2.73-3.57,1.52-1.4,2.56-1.7,3.87-2.73,1.18-.94,2.65-2.53,3.72-5.39l13.23-.03,20.34-.05h6.39l6.55.02,27.02.07c1.07,2.86,2.54,4.45,3.72,5.39,1.31,1.03,2.36,1.33,3.87,2.73,1.37,1.27,2.22,2.61,2.73,3.57Z"></path><path class="cls-3" d="M124.74,41.69h-.24c-6.65-.05-37.04,0-37.34,0h-33.28c-.17,0-16.89-.05-23.55,0h-.24s.11-.21.11-.21c.73-1.37,1.66-2.58,2.76-3.6.9-.84,1.64-1.28,2.36-1.72.51-.31.99-.6,1.52-1.02,1.58-1.26,2.82-3.05,3.67-5.32l.04-.09,40.06-.09,33.67.09.04.09c.85,2.28,2.09,4.07,3.67,5.33.53.42,1.01.71,1.52,1.02.72.43,1.46.88,2.36,1.72,1.1,1.02,2.02,2.23,2.76,3.6l.11.22ZM39.4,41.38c6.93,0,14.36.02,14.47.02h33.28c.3,0,29.98-.05,37.1,0-.7-1.26-1.57-2.37-2.58-3.31-.88-.82-1.61-1.26-2.31-1.68-.49-.3-1-.61-1.55-1.04-1.6-1.27-2.86-3.07-3.73-5.36l-33.47-.08h-6.39l-33.47.08c-.87,2.28-2.12,4.08-3.73,5.36-.55.43-1.06.74-1.55,1.04-.7.43-1.43.87-2.31,1.68-1.02.95-1.89,2.06-2.58,3.31,2.23-.02,5.47-.02,8.83-.02Z"></path><path class="cls-2" d="M120.47,103.84H35.07l-1.42-1.42v-55.96h86.82v57.39Z"></path><polygon class="cls-3" points="29.16 53.64 29.16 96.73 34.37 103.81 38.57 103.81 38.59 103.84 124.5 103.84 124.5 108.52 42.18 108.52 48.97 117.37 41.83 117.37 30.33 108.52 24.92 102.75 24.92 47.26 30.33 41.54 38.57 41.44 124.5 41.44 124.5 46.45 34.58 46.45 29.16 53.64"></polygon><rect class="cls-3" x="57.3" y="60.81" width="40.91" height="39.09" rx="4.98" ry="4.98"></rect><rect class="cls-2" x="58.68" y="62.13" width="38.14" height="36.44" rx="3.94" ry="3.94"></rect><polygon class="cls-1" points="124.5 41.49 124.5 46.45 80.15 46.45 80.15 46.41 69.04 43.95 80.15 41.49 124.5 41.49"></polygon><circle class="cls-3" cx="82.02" cy="44" r="1.42"></circle></g><g><circle class="cls-3" cx="62.19" cy="65.47" r="1.75"></circle><circle class="cls-3" cx="93.15" cy="95.23" r="1.75"></circle></g></svg> 